####
#
# OBJ File Generated by Meshlab
#
####
# Object maze18_1.obj
#
# Vertices: 8
# Faces: 10
#
####
mtllib ./maze18_1.obj.mtl

g maze65

vn -0.555503 0.831495 0.005668
v -5.192100 13.462200 61.641998
vn -0.571429 0.577350 0.583212
v -4.982600 13.462200 82.175201
vn 0.583213 0.577350 0.571428
v -0.740200 13.462200 82.131897
vn 0.893218 0.449532 -0.009115
v -0.992600 13.462200 57.399399
vn -0.555503 -0.831495 0.005668
v -5.192100 0.270900 61.641998
vn -0.571429 -0.577350 0.583212
v -4.982600 0.270900 82.175201
vn 0.893218 -0.449532 -0.009115
v -0.992600 0.270900 57.399399
vn 0.583212 -0.577350 0.571428
v -0.740200 0.270900 82.131897
# 8 vertices, 0 vertices normals


usemtl material_0
vt 0.441100 0.198700
vt 0.442000 0.085800
vt 0.459100 0.086000
f 1/1/1 2/2/2 3/3/3
vt 0.458100 0.222100
f 1/1/1 3/3/3 4/4/4
vt 0.801300 0.004300
vt 0.914200 0.004300
vt 0.914200 0.995700
f 5/5/5 6/6/6 2/7/2
vt 0.801300 0.995700
f 5/5/5 2/7/2 1/8/1
vt 0.541900 0.222100
vt 0.540900 0.086000
vt 0.558000 0.085800
f 7/9/7 8/10/8 6/11/6
vt 0.558900 0.198700
f 7/9/7 6/11/6 5/12/5
vt 0.222100 0.995700
vt 0.086000 0.995700
vt 0.086000 0.004300
f 4/13/4 3/14/3 8/15/8
vt 0.222100 0.004300
f 4/13/4 8/15/8 7/16/7
vt 0.442000 0.004300
vt 0.459100 0.004300
vt 0.459100 0.995700
f 6/17/6 8/18/8 3/19/3
vt 0.442000 0.995700
f 6/17/6 3/19/3 2/20/2
# 10 faces, 20 coords texture

# End of File
