####
#
# OBJ File Generated by Meshlab
#
####
# Object maze14_1.obj
#
# Vertices: 8
# Faces: 10
#
####
mtllib ./maze14_1.obj.mtl

vn 0.554700 0.832050 0.000000
v -24.989500 13.462200 -8.334900
vn -0.894427 0.447214 0.000000
v -29.232100 13.462200 -12.577500
vn 0.554700 -0.832050 0.000000
v -24.989500 0.270900 -8.334900
vn -0.894427 -0.447214 0.000000
v -29.232100 0.270900 -12.577500
vn 0.577350 0.577350 0.577350
v -24.989500 13.462200 15.640800
vn -0.577350 0.577350 0.577350
v -29.232100 13.462200 15.640800
vn 0.577350 -0.577350 0.577350
v -24.989500 0.270900 15.640800
vn -0.577350 -0.577350 0.577350
v -29.232100 0.270900 15.640800
# 8 vertices, 0 vertices normals


usemtl material_0
vt 0.361100 0.451800
vt 0.361100 0.583700
vt 0.344000 0.607100
f 5/1/5 1/2/1 2/3/2
vt 0.344000 0.451800
f 5/1/5 2/3/2 6/4/6
vt 0.451800 0.004300
vt 0.583700 0.004300
vt 0.583700 0.995700
f 7/5/7 3/6/3 1/7/1
vt 0.451800 0.995700
f 7/5/7 1/7/1 5/8/5
vt 0.656000 0.451800
vt 0.656000 0.607100
vt 0.638900 0.583700
f 8/9/8 4/10/4 3/11/3
vt 0.638900 0.451800
f 8/9/8 3/11/3 7/12/7
vt 0.548200 0.995700
vt 0.392900 0.995700
vt 0.392900 0.004300
f 6/13/6 2/14/2 4/15/4
vt 0.548200 0.004300
f 6/13/6 4/15/4 8/16/8
vt 0.361100 0.004300
vt 0.361100 0.995700
vt 0.344000 0.995700
f 7/17/7 5/18/5 6/19/6
vt 0.344000 0.004300
f 8/20/8 7/17/7 6/19/6
# 10 faces, 20 coords texture

# End of File
