####
#
# OBJ File Generated by Meshlab
#
####
# Object maze23.obj
#
# Vertices: 8
# Faces: 12
#
####
mtllib ./maze23.obj.mtl

vn 1.570796 1.570796 1.570796
v 35.980499 13.462200 -8.146700
vn 1.570796 1.570796 -1.570796
v 35.980499 13.462200 -20.386900
vn -1.570796 1.570796 -1.570796
v 31.737801 13.462200 -20.386900
vn -1.570796 1.570796 1.570796
v 31.737801 13.462200 -8.146700
vn 1.570796 -1.570796 1.570796
v 35.980499 0.270900 -8.146700
vn 1.570796 -1.570796 -1.570796
v 35.980499 0.270900 -20.386900
vn -1.570796 -1.570796 1.570796
v 31.737801 0.270900 -8.146700
vn -1.570796 -1.570796 -1.570796
v 31.737801 0.270900 -20.386900
# 8 vertices, 0 vertices normals


usemtl material_0
vt 0.607500 0.582700
vt 0.607500 0.650000
vt 0.590400 0.650000
f 1/1/1 2/2/2 3/3/3
vt 0.590400 0.582700
f 1/1/1 3/3/3 4/4/4
vt 0.582700 0.004300
vt 0.650000 0.004300
vt 0.650000 0.995700
f 5/5/5 6/6/6 2/7/2
vt 0.582700 0.995700
f 5/5/5 2/7/2 1/8/1
vt 0.409600 0.582700
vt 0.409600 0.650000
vt 0.392500 0.650000
f 7/9/7 8/10/8 6/11/6
vt 0.392500 0.582700
f 7/9/7 6/11/6 5/12/5
vt 0.417300 0.995700
vt 0.350000 0.995700
vt 0.350000 0.004300
f 4/13/4 3/14/3 8/15/8
vt 0.417300 0.004300
f 4/13/4 8/15/8 7/16/7
vt 0.392500 0.004300
vt 0.409600 0.004300
vt 0.409600 0.995700
f 6/17/6 8/18/8 3/19/3
vt 0.392500 0.995700
f 6/17/6 3/19/3 2/20/2
vt 0.607500 0.004300
vt 0.607500 0.995700
vt 0.590400 0.995700
f 5/21/5 1/22/1 4/23/4
vt 0.590400 0.004300
f 7/24/7 5/21/5 4/23/4
# 12 faces, 24 coords texture

# End of File
