####
#
# OBJ File Generated by Meshlab
#
####
# Object maze17_5.obj
#
# Vertices: 8
# Faces: 10
#
####
mtllib ./maze17_5.obj.mtl

g maze64

vn -1.566969 2.356279 -0.000014
v 104.255402 13.465400 -0.797400
vn 1.571716 0.785382 0.000069
v 108.498100 13.459000 3.445200
vn -1.574624 -2.356179 0.000094
v 104.254799 0.274100 -0.801000
vn 1.569877 -0.785498 0.000004
v 108.497498 0.267700 3.441700
vn -1.568578 1.571352 -1.569555
v 104.256203 13.465400 -12.533700
vn 1.573318 1.570817 -1.572159
v 108.498802 13.459000 -12.533700
vn -1.573014 -1.570342 -1.572144
v 104.254097 0.274100 -12.535700
vn 1.568275 -1.570857 -1.569526
v 108.496696 0.267700 -12.535700
# 8 vertices, 0 vertices normals


usemtl material_0
vt 0.883400 0.606800
vt 0.883400 0.542300
vt 0.900600 0.518900
f 5/1/5 1/2/1 2/3/2
vt 0.900600 0.606800
f 5/1/5 2/3/2 6/4/6
vt 0.393200 0.004600
vt 0.457700 0.004600
vt 0.457700 0.995900
f 7/5/7 3/6/3 1/7/1
vt 0.393200 0.995900
f 7/5/7 1/7/1 5/8/5
vt 0.099400 0.606800
vt 0.099400 0.518900
vt 0.116600 0.542300
f 8/9/8 4/10/4 3/11/3
vt 0.116600 0.606800
f 8/9/8 3/11/3 7/12/7
vt 0.606800 0.995400
vt 0.518900 0.995400
vt 0.518900 0.004100
f 6/13/6 2/14/2 4/15/4
vt 0.606800 0.004100
f 6/13/6 4/15/4 8/16/8
vt 0.116600 0.004600
vt 0.116600 0.995900
vt 0.099400 0.995400
f 7/17/7 5/18/5 6/19/6
vt 0.099400 0.004100
f 8/20/8 7/17/7 6/19/6
# 10 faces, 20 coords texture

# End of File
