####
#
# OBJ File Generated by Meshlab
#
####
# Object maze4_4.obj
#
# Vertices: 8
# Faces: 8
#
####
mtllib ./maze4_4.obj.mtl

g maze25

vn 0.000000 0.832052 0.554698
v -64.797997 13.462200 -66.533501
vn 0.000000 0.447208 -0.894430
v -60.555302 13.462200 -70.776100
vn 0.000000 -0.832052 0.554698
v -64.797997 0.270900 -66.533501
vn 0.000000 -0.447208 -0.894430
v -60.555302 0.270900 -70.776100
vn 0.000000 0.832050 0.554700
v -72.795502 13.462200 -66.533501
vn 0.000000 0.447214 -0.894427
v -77.038101 13.462200 -70.776100
vn 0.000000 -0.832050 0.554700
v -72.795502 0.270900 -66.533501
vn 0.000000 -0.447214 -0.894427
v -77.038101 0.270900 -70.776100
# 8 vertices, 0 vertices normals


usemtl material_0
vt 0.167900 0.903900
vt 0.200200 0.903900
vt 0.217400 0.927300
f 5/1/5 1/2/1 2/3/2
vt 0.150800 0.927300
f 5/1/5 2/3/2 6/4/6
vt 0.167900 0.004300
vt 0.200200 0.004300
vt 0.200200 0.995700
f 7/5/7 3/6/3 1/7/1
vt 0.167900 0.995700
f 7/5/7 1/7/1 5/8/5
vt 0.849200 0.927300
vt 0.782600 0.927300
vt 0.799800 0.903900
f 8/9/8 4/10/4 3/11/3
vt 0.832100 0.903900
f 8/9/8 3/11/3 7/12/7
vt 0.849200 0.995700
vt 0.782600 0.995700
vt 0.782600 0.004300
f 6/13/6 2/14/2 4/15/4
vt 0.849200 0.004300
f 6/13/6 4/15/4 8/16/8
# 8 faces, 16 coords texture

# End of File
