####
#
# OBJ File Generated by Meshlab
#
####
# Object maze3_5.obj
#
# Vertices: 8
# Faces: 8
#
####
mtllib ./maze3_5.obj.mtl

vn 0.555048 0.831819 0.000124
v -97.506699 13.460600 -42.976002 0.000000 0.000000 0.000000
vn -0.894366 0.447335 0.000028
v -101.749298 13.463800 -47.218601 0.094118 0.094118 0.094118
vn 0.554111 -0.832443 0.000068
v -97.507004 0.269300 -42.977798 0.588235 0.588235 0.588235
vn -0.894484 -0.447100 0.000063
v -101.749603 0.272500 -47.220402 0.588235 0.588235 0.588235
vn 0.894547 0.446974 -0.000036
v -97.506500 13.459000 -32.582500 0.588235 0.588235 0.588235
vn -0.553630 0.832763 -0.000130
v -101.749199 13.465400 -36.825100 0.000000 0.000000 0.000000
vn 0.894305 -0.447458 -0.000071
v -97.507103 0.267700 -32.585999 0.588235 0.588235 0.588235
vn -0.555533 -0.831494 -0.000073
v -101.749802 0.274100 -36.828701 0.588235 0.588235 0.588235
# 8 vertices, 0 vertices normals


usemtl material_0
vt 0.068000 0.717100
vt 0.068000 0.774300
vt 0.050900 0.797700
f 5/1/5 1/2/1 2/3/2
vt 0.050900 0.740500
f 5/1/5 2/3/2 6/4/6
vt 0.717200 0.004100
vt 0.774300 0.004200
vt 0.774300 0.995600
f 7/5/7 3/6/3 1/7/1
vt 0.717100 0.995400
f 7/5/7 1/7/1 5/8/5
vt 0.949100 0.740500
vt 0.949100 0.797700
vt 0.932000 0.774300
f 8/9/8 4/10/4 3/11/3
vt 0.932000 0.717200
f 8/9/8 3/11/3 7/12/7
vt 0.259500 0.995900
vt 0.202300 0.995800
vt 0.202300 0.004400
f 6/13/6 2/14/2 4/15/4
vt 0.259500 0.004600
f 6/13/6 4/15/4 8/16/8
# 8 faces, 16 coords texture

# End of File
