####
#
# OBJ File Generated by Meshlab
#
####
# Object maze17.obj
#
# Vertices: 24
# Faces: 44
#
####
mtllib ./maze17.obj.mtl

vn 1.570792 4.709991 -1.574562
v -0.283300 13.462200 10.286200
vn 1.567016 1.570789 -1.574558
v -0.509100 13.462200 -83.902397
vn -1.574568 1.570802 -1.567025
v -4.751800 13.462200 -83.892197
vn -1.570792 1.573194 1.574563
v -4.515800 13.462200 14.528900
vn 1.570792 -4.709991 -1.574562
v -0.283300 0.270900 10.286200
vn 1.567015 -1.570789 -1.574558
v -0.509100 0.270900 -83.902397
vn -1.570792 -1.573193 1.574563
v -4.515800 0.270900 14.528900
vn -1.574568 -1.570803 -1.567025
v -4.751800 0.270900 -83.892197
vn -1.571281 4.712390 -1.570466
v 54.832500 13.462200 10.286200
vn 1.570820 1.570814 1.570860
v 59.075100 13.462200 14.528900
vn -1.571250 -4.712398 -1.570602
v 54.832500 0.270900 10.286200
vn 1.570827 -1.570807 1.570915
v 59.075100 0.270900 14.528900
vn -1.570409 1.571081 -1.570297
v 54.832699 13.463800 -0.798300
vn 1.573088 4.712169 1.572374
v 59.075298 13.460600 3.444300
vn -1.571332 -1.570575 -1.571491
v 54.832401 0.272500 -0.800100
vn 1.569249 -4.712652 1.568912
v 59.075001 0.269300 3.442600
vn -1.566871 4.712929 -1.567318
v 104.255402 13.465400 -0.797400
vn 1.571760 1.570369 1.572012
v 108.498100 13.459000 3.445200
vn -1.574528 -4.711959 -1.574411
v 104.254799 0.274100 -0.801000
vn 1.569926 -1.571331 1.569668
v 108.497498 0.267700 3.441700
vn -1.568578 1.571352 -1.569555
v 104.256203 13.465400 -12.533700
vn 1.573318 1.570817 -1.572159
v 108.498802 13.459000 -12.533700
vn -1.573014 -1.570342 -1.572144
v 104.254097 0.274100 -12.535700
vn 1.568275 -1.570857 -1.569526
v 108.496696 0.267700 -12.535700
# 24 vertices, 0 vertices normals


usemtl material_0
vt 0.460900 0.481300
vt 0.460000 0.999500
vt 0.442900 0.999400
f 1/1/1 2/2/2 3/3/3
vt 0.443800 0.457900
f 1/1/1 3/3/3 4/4/4
vt 0.481300 0.004300
vt 0.999500 0.004300
vt 0.999500 0.995700
f 5/5/5 6/6/6 2/7/2
vt 0.481300 0.995700
f 5/5/5 2/7/2 1/8/1
vt 0.556200 0.457900
vt 0.557100 0.999400
vt 0.540000 0.999500
f 7/9/7 8/10/8 6/11/6
vt 0.539100 0.481300
f 7/9/7 6/11/6 5/12/5
vt 0.542100 0.995700
vt 0.000600 0.995700
vt 0.000600 0.004300
f 4/13/4 3/14/3 8/15/8
vt 0.542100 0.004300
f 4/13/4 8/15/8 7/16/7
vt 0.683700 0.481300
f 9/17/9 1/1/1 4/4/4
vt 0.700800 0.457900
f 9/17/9 4/4/4 10/18/10
vt 0.316300 0.004300
vt 0.539100 0.004300
vt 0.539100 0.995700
f 11/19/11 5/20/5 1/21/1
vt 0.316300 0.995700
f 11/19/11 1/21/1 9/22/9
vt 0.299200 0.457900
f 12/23/12 7/9/7 5/12/5
vt 0.316300 0.481300
f 12/23/12 5/12/5 11/24/11
vt 0.700800 0.995700
vt 0.443800 0.995700
vt 0.443800 0.004300
f 10/25/10 4/26/4 7/27/7
vt 0.700800 0.004300
f 10/25/10 7/27/7 12/28/12
vt 0.683700 0.542300
f 13/29/13 9/17/9 10/18/10
vt 0.700800 0.518900
f 13/29/13 10/18/10 14/30/14
vt 0.457700 0.004400
vt 0.518700 0.004300
vt 0.518700 0.995700
f 15/31/15 11/32/11 9/33/9
vt 0.457700 0.995800
f 15/31/15 9/33/9 13/34/13
vt 0.299200 0.518900
f 16/35/16 12/23/12 11/24/11
vt 0.316300 0.542300
f 16/35/16 11/24/11 15/36/15
vt 0.518900 0.995600
vt 0.457900 0.995700
vt 0.457900 0.004300
f 14/37/14 10/38/10 12/39/12
vt 0.518900 0.004200
f 14/37/14 12/39/12 16/40/16
vt 0.883400 0.542300
f 17/41/17 13/29/13 14/30/14
vt 0.900600 0.518900
f 17/41/17 14/30/14 18/42/18
vt 0.116600 0.004600
vt 0.316300 0.004400
vt 0.316300 0.995800
f 19/43/19 15/44/15 13/45/13
vt 0.116600 0.995900
f 19/43/19 13/45/13 17/46/17
vt 0.099400 0.518900
f 20/47/20 16/35/16 15/36/15
vt 0.116600 0.542300
f 20/47/20 15/36/15 19/48/19
vt 0.900600 0.995400
vt 0.700800 0.995600
vt 0.700800 0.004200
f 18/49/18 14/50/14 16/51/16
vt 0.900600 0.004100
f 18/49/18 16/51/16 20/52/20
vt 0.883400 0.606800
f 21/53/21 17/41/17 18/42/18
vt 0.900600 0.606800
f 21/53/21 18/42/18 22/54/22
vt 0.393200 0.004600
vt 0.457700 0.004600
vt 0.457700 0.995900
f 23/55/23 19/56/19 17/57/17
vt 0.393200 0.995900
f 23/55/23 17/57/17 21/58/21
vt 0.099400 0.606800
f 24/59/24 20/47/20 19/48/19
vt 0.116600 0.606800
f 24/59/24 19/48/19 23/60/23
vt 0.606800 0.995400
vt 0.518900 0.995400
vt 0.518900 0.004100
f 22/61/22 18/62/18 20/63/20
vt 0.606800 0.004100
f 22/61/22 20/63/20 24/64/24
vt 0.540000 0.004300
vt 0.557100 0.004300
vt 0.557100 0.995700
f 6/65/6 8/66/8 3/67/3
vt 0.540000 0.995700
f 6/65/6 3/67/3 2/68/2
vt 0.099400 0.995400
f 23/43/23 21/46/21 22/69/22
vt 0.099400 0.004100
f 24/70/24 23/43/23 22/69/22
# 44 faces, 70 coords texture

# End of File
