####
#
# OBJ File Generated by Meshlab
#
####
# Object maze7.obj
#
# Vertices: 16
# Faces: 28
#
####
mtllib ./maze7.obj.mtl

vn 1.570760 1.577646 1.581556
v -48.560600 13.462200 -43.438801
vn 1.581533 1.570805 -1.560000
v -48.315201 13.462200 -79.263802
vn -1.559986 1.570786 -1.581517
v -52.557701 13.462200 -79.292900
vn -1.570760 4.705540 -1.581554
v -52.774200 13.462200 -47.681400
vn 1.570759 -1.577646 1.581556
v -48.560600 0.270900 -43.438801
vn 1.581533 -1.570804 -1.560000
v -48.315201 0.270900 -79.263802
vn -1.570760 -4.705540 -1.581554
v -52.774200 0.270900 -47.681400
vn -1.559986 -1.570786 -1.581517
v -52.557701 0.270900 -79.292900
vn 1.570796 4.712389 1.570796
v -60.555302 13.462200 -43.438801
vn -1.570796 1.570797 -1.570798
v -64.797897 13.462200 -47.681400
vn 1.570796 -4.712389 1.570796
v -60.555302 0.270900 -43.438801
vn -1.570796 -1.570797 -1.570798
v -64.797897 0.270900 -47.681400
vn 1.570796 1.570796 1.570796
v -60.555302 13.462200 38.735500
vn -1.570796 1.570795 1.570794
v -64.797997 13.462200 38.735500
vn 1.570796 -1.570796 1.570796
v -60.555302 0.270900 38.735500
vn -1.570796 -1.570795 1.570795
v -64.797997 0.270900 38.735500
# 16 vertices, 0 vertices normals


usemtl material_0
vt 0.265800 0.776900
vt 0.266800 0.974000
vt 0.249700 0.974100
f 1/1/1 2/2/2 3/3/3
vt 0.248800 0.800200
f 1/1/1 3/3/3 4/4/4
vt 0.776900 0.004300
vt 0.974000 0.004300
vt 0.974000 0.995700
f 5/5/5 6/6/6 2/7/2
vt 0.776900 0.995700
f 5/5/5 2/7/2 1/8/1
vt 0.751200 0.800200
vt 0.750300 0.974100
vt 0.733200 0.974000
f 7/9/7 8/10/8 6/11/6
vt 0.734200 0.776900
f 7/9/7 6/11/6 5/12/5
vt 0.199800 0.995700
vt 0.025900 0.995700
vt 0.025900 0.004300
f 4/13/4 3/14/3 8/15/8
vt 0.199800 0.004300
f 4/13/4 8/15/8 7/16/7
vt 0.217400 0.776900
f 9/17/9 1/1/1 4/4/4
vt 0.200200 0.800200
f 9/17/9 4/4/4 10/18/10
vt 0.217400 0.004300
vt 0.265800 0.004300
vt 0.265800 0.995700
f 11/19/11 5/20/5 1/21/1
vt 0.217400 0.995700
f 11/19/11 1/21/1 9/22/9
vt 0.799800 0.800200
f 12/23/12 7/9/7 5/12/5
vt 0.782600 0.776900
f 12/23/12 5/12/5 11/24/11
vt 0.799800 0.995700
vt 0.751200 0.995700
vt 0.751200 0.004300
f 10/25/10 4/26/4 7/27/7
vt 0.799800 0.004300
f 10/25/10 7/27/7 12/28/12
vt 0.217400 0.324800
f 13/29/13 9/17/9 10/18/10
vt 0.200200 0.324800
f 13/29/13 10/18/10 14/30/14
vt 0.324800 0.004300
f 15/31/15 11/5/11 9/8/9
vt 0.324800 0.995700
f 15/31/15 9/8/9 13/32/13
vt 0.799800 0.324800
f 16/33/16 12/23/12 11/24/11
vt 0.782600 0.324800
f 16/33/16 11/24/11 15/34/15
vt 0.675200 0.995700
f 14/35/14 10/13/10 12/16/12
vt 0.675200 0.004300
f 14/35/14 12/16/12 16/36/16
vt 0.733200 0.004300
vt 0.750300 0.004300
vt 0.750300 0.995700
f 6/37/6 8/38/8 3/39/3
vt 0.733200 0.995700
f 6/37/6 3/39/3 2/40/2
vt 0.200200 0.995700
f 15/19/15 13/22/13 14/41/14
vt 0.200200 0.004300
f 16/42/16 15/19/15 14/41/14
# 28 faces, 42 coords texture

# End of File
