####
#
# OBJ File Generated by Meshlab
#
####
# Object maze25.obj
#
# Vertices: 8
# Faces: 10
#
####
mtllib ./maze25.obj.mtl

vn 0.302008 0.901799 -0.309111
v 59.257301 13.462200 -71.237999
vn 0.563776 0.577350 -0.590613
v 59.074600 13.462200 -79.096703
vn -0.590614 0.577350 -0.563775
v 54.833099 13.462200 -78.998100
vn -0.569990 0.578583 0.583398
v 55.112202 13.462200 -66.995300
vn 0.302008 -0.901799 -0.309111
v 59.257301 0.270900 -71.237999
vn 0.563776 -0.577350 -0.590613
v 59.074600 0.270900 -79.096703
vn -0.569990 -0.578583 0.583398
v 55.112202 0.270900 -66.995300
vn -0.590614 -0.577350 -0.563775
v 54.833099 0.270900 -78.998100
# 8 vertices, 0 vertices normals


usemtl material_0
vt 0.701600 0.929800
vt 0.700800 0.973100
vt 0.683700 0.972500
f 1/1/1 2/2/2 3/3/3
vt 0.684800 0.906500
f 1/1/1 3/3/3 4/4/4
vt 0.929800 0.004300
vt 0.973100 0.004300
vt 0.973100 0.995700
f 5/5/5 6/6/6 2/7/2
vt 0.929800 0.995700
f 5/5/5 2/7/2 1/8/1
vt 0.315200 0.906500
vt 0.316300 0.972500
vt 0.299200 0.973100
f 7/9/7 8/10/8 6/11/6
vt 0.298400 0.929800
f 7/9/7 6/11/6 5/12/5
vt 0.093500 0.995700
vt 0.027500 0.995700
vt 0.027500 0.004300
f 4/13/4 3/14/3 8/15/8
vt 0.093500 0.004300
f 4/13/4 8/15/8 7/16/7
vt 0.299200 0.004300
vt 0.316300 0.004300
vt 0.316300 0.995700
f 6/17/6 8/18/8 3/19/3
vt 0.299200 0.995700
f 6/17/6 3/19/3 2/20/2
# 10 faces, 20 coords texture

# End of File
