####
#
# OBJ File Generated by Meshlab
#
####
# Object maze9_1.obj
#
# Vertices: 8
# Faces: 10
#
####
mtllib ./maze9_1.obj.mtl

g maze42

vn 0.000000 0.785398 -1.570796
v -24.989500 13.462200 57.861301
vn -1.570796 1.570796 -1.570796
v -73.300201 13.462200 57.861301
vn -1.570796 1.570796 1.570796
v -73.300201 13.462200 62.103901
vn 0.000000 2.356194 1.570796
v -29.232100 13.462200 62.103901
vn 0.000000 -0.785398 -1.570796
v -24.989500 0.270900 57.861301
vn -1.570796 -1.570797 -1.570796
v -73.300201 0.270900 57.861301
vn 0.000000 -2.356195 1.570796
v -29.232100 0.270900 62.103901
vn -1.570796 -1.570796 1.570796
v -73.300201 0.270900 62.103901
# 8 vertices, 0 vertices normals


usemtl material_0
vt 0.361100 0.219500
vt 0.165900 0.219500
vt 0.165900 0.196200
f 1/1/1 2/2/2 3/3/3
vt 0.344000 0.196200
f 1/1/1 3/3/3 4/4/4
vt 0.638900 0.004300
vt 0.834100 0.004300
vt 0.834100 0.995700
f 5/5/5 6/6/6 2/7/2
vt 0.638900 0.995700
f 5/5/5 2/7/2 1/8/1
vt 0.656000 0.196200
vt 0.834100 0.196200
vt 0.834100 0.219500
f 7/9/7 8/10/8 6/11/6
vt 0.638900 0.219500
f 7/9/7 6/11/6 5/12/5
vt 0.344000 0.995700
vt 0.165900 0.995700
vt 0.165900 0.004300
f 4/13/4 3/14/3 8/15/8
vt 0.344000 0.004300
f 4/13/4 8/15/8 7/16/7
vt 0.780500 0.004300
vt 0.803800 0.004300
vt 0.803800 0.995700
f 6/17/6 8/18/8 3/19/3
vt 0.780500 0.995700
f 6/17/6 3/19/3 2/20/2
# 10 faces, 20 coords texture

# End of File
