####
#
# OBJ File Generated by Meshlab
#
####
# Object maze13.obj
#
# Vertices: 16
# Faces: 28
#
####
mtllib ./maze13.obj.mtl

vn 1.570784 4.716280 1.564685
v -35.604801 13.462200 -20.575001
vn 1.570796 1.570796 1.570796
v -24.570400 13.462200 -20.575001
vn 1.570796 1.570796 -1.570796
v -24.570400 13.462200 -24.817699
vn -1.570784 1.566905 -1.564683
v -39.863998 13.462200 -24.817699
vn 1.570784 -4.716280 1.564685
v -35.604801 0.270900 -20.575001
vn 1.570796 -1.570796 1.570796
v -24.570400 0.270900 -20.575001
vn -1.570785 -1.566904 -1.564683
v -39.863998 0.270900 -24.817699
vn 1.570796 -1.570796 -1.570796
v -24.570400 0.270900 -24.817699
vn 1.570784 4.708498 -1.576907
v -35.390400 13.462200 34.535702
vn -1.570785 1.574688 1.576909
v -39.616501 13.462200 38.778301
vn 1.570784 -4.708499 -1.576907
v -35.390400 0.270900 34.535702
vn -1.570784 -1.574689 1.576909
v -39.616501 0.270900 38.778301
vn 1.570796 1.570796 -1.570796
v -28.727501 13.462200 34.535702
vn 1.570796 1.570796 1.570796
v -28.727501 13.462200 38.778301
vn 1.570796 -1.570796 -1.570796
v -28.727501 0.270900 34.535702
vn 1.570796 -1.570796 1.570796
v -28.727501 0.270900 38.778301
# 16 vertices, 0 vertices normals


usemtl material_0
vt 0.318200 0.651100
vt 0.362800 0.651100
vt 0.362800 0.674400
f 1/1/1 2/2/2 3/3/3
vt 0.301000 0.674400
f 1/1/1 3/3/3 4/4/4
vt 0.318200 0.004300
vt 0.362800 0.004300
vt 0.362800 0.995700
f 5/5/5 6/6/6 2/7/2
vt 0.318200 0.995700
f 5/5/5 2/7/2 1/8/1
vt 0.699000 0.674400
vt 0.637200 0.674400
vt 0.637200 0.651100
f 7/9/7 8/10/8 6/11/6
vt 0.681800 0.651100
f 7/9/7 6/11/6 5/12/5
vt 0.699000 0.995700
vt 0.637200 0.995700
vt 0.637200 0.004300
f 4/13/4 3/14/3 8/15/8
vt 0.699000 0.004300
f 4/13/4 8/15/8 7/16/7
vt 0.319100 0.347900
f 9/17/9 1/1/1 4/4/4
vt 0.302000 0.324500
f 9/17/9 4/4/4 10/18/10
vt 0.347900 0.004300
vt 0.651100 0.004300
vt 0.651100 0.995700
f 11/19/11 5/20/5 1/21/1
vt 0.347900 0.995700
f 11/19/11 1/21/1 9/22/9
vt 0.698000 0.324500
f 12/23/12 7/9/7 5/12/5
vt 0.680900 0.347900
f 12/23/12 5/12/5 11/24/11
vt 0.675500 0.995700
vt 0.325600 0.995700
vt 0.325600 0.004300
f 10/25/10 4/26/4 7/27/7
vt 0.675500 0.004300
f 10/25/10 7/27/7 12/28/12
vt 0.346000 0.347900
f 13/29/13 9/17/9 10/18/10
vt 0.346000 0.324500
f 13/29/13 10/18/10 14/30/14
vt 0.654000 0.004300
vt 0.680900 0.004300
vt 0.680900 0.995700
f 15/31/15 11/32/11 9/33/9
vt 0.654000 0.995700
f 15/31/15 9/33/9 13/34/13
vt 0.654000 0.324500
f 16/35/16 12/23/12 11/24/11
vt 0.654000 0.347900
f 16/35/16 11/24/11 15/36/15
vt 0.346000 0.995700
vt 0.302000 0.995700
vt 0.302000 0.004300
f 14/37/14 10/38/10 12/39/12
vt 0.346000 0.004300
f 14/37/14 12/39/12 16/40/16
vt 0.674400 0.004300
vt 0.674400 0.995700
f 6/20/6 8/41/8 3/42/3
f 6/20/6 3/42/3 2/21/2
vt 0.324500 0.995700
f 15/19/15 13/22/13 14/43/14
vt 0.324500 0.004300
f 16/44/16 15/19/15 14/43/14
# 28 faces, 44 coords texture

# End of File
