####
#
# OBJ File Generated by Meshlab
#
####
# Object maze4_5.obj
#
# Vertices: 8
# Faces: 8
#
####
mtllib ./maze4_5.obj.mtl

g maze26

vn -0.554702 0.832049 0.000000
v -64.797997 13.462200 -66.533501
vn -0.707107 0.707107 0.000000
v -64.797997 13.462200 -54.798000
vn 0.707107 0.707107 0.000000
v -60.555302 13.462200 -54.798000
vn 0.894425 0.447219 0.000000
v -60.555302 13.462200 -70.776100
vn -0.554702 -0.832049 0.000000
v -64.797997 0.270900 -66.533501
vn -0.707107 -0.707107 0.000000
v -64.797997 0.270900 -54.798000
vn 0.894425 -0.447219 0.000000
v -60.555302 0.270900 -70.776100
vn 0.707107 -0.707107 0.000000
v -60.555302 0.270900 -54.798000
# 8 vertices, 0 vertices normals


usemtl material_0
vt 0.200200 0.903900
vt 0.200200 0.839400
vt 0.217400 0.839400
f 1/1/1 2/2/2 3/3/3
vt 0.217400 0.927300
f 1/1/1 3/3/3 4/4/4
vt 0.096100 0.004300
vt 0.160600 0.004300
vt 0.160600 0.995700
f 5/5/5 6/6/6 2/7/2
vt 0.096100 0.995700
f 5/5/5 2/7/2 1/8/1
vt 0.782600 0.927300
vt 0.782600 0.839400
vt 0.799800 0.839400
f 7/9/7 8/10/8 6/11/6
vt 0.799800 0.903900
f 7/9/7 6/11/6 5/12/5
vt 0.927300 0.995700
vt 0.839400 0.995700
vt 0.839400 0.004300
f 4/13/4 3/14/3 8/15/8
vt 0.927300 0.004300
f 4/13/4 8/15/8 7/16/7
# 8 faces, 16 coords texture

# End of File
