####
#
# OBJ File Generated by Meshlab
#
####
# Object maze11_5.obj
#
# Vertices: 8
# Faces: 10
#
####
mtllib ./maze11_5.obj.mtl

vn 1.570760 2.359652 -0.010763
v -24.975000 13.462200 27.000099
vn -1.570760 0.781946 0.010755
v -29.246700 13.462200 22.757299
vn 1.570760 -2.359652 -0.010763
v -24.975000 0.270900 27.000099
vn -1.570760 -0.781945 0.010755
v -29.246700 0.270900 22.757299
vn 1.581496 1.570781 1.559997
v -24.758600 13.462200 58.582401
vn -1.560023 1.570808 1.581515
v -29.001200 13.462200 58.611401
vn 1.581496 -1.570780 1.559997
v -24.758600 0.270900 58.582401
vn -1.560023 -1.570808 1.581515
v -29.001200 0.270900 58.611401
# 8 vertices, 0 vertices normals


usemtl material_0
vt 0.362000 0.215600
vt 0.361200 0.389300
vt 0.343900 0.412700
f 5/1/5 1/2/1 2/3/2
vt 0.344900 0.215400
f 5/1/5 2/3/2 6/4/6
vt 0.215600 0.004300
vt 0.389300 0.004300
vt 0.389300 0.995700
f 7/5/7 3/6/3 1/7/1
vt 0.215600 0.995700
f 7/5/7 1/7/1 5/8/5
vt 0.655100 0.215400
vt 0.656100 0.412700
vt 0.638800 0.389300
f 8/9/8 4/10/4 3/11/3
vt 0.638000 0.215600
f 8/9/8 3/11/3 7/12/7
vt 0.784600 0.995700
vt 0.587300 0.995700
vt 0.587300 0.004300
f 6/13/6 2/14/2 4/15/4
vt 0.784600 0.004300
f 6/13/6 4/15/4 8/16/8
vt 0.362000 0.004300
vt 0.362000 0.995700
vt 0.344900 0.995700
f 7/17/7 5/18/5 6/19/6
vt 0.344900 0.004300
f 8/20/8 7/17/7 6/19/6
# 10 faces, 20 coords texture

# End of File
