####
#
# OBJ File Generated by Meshlab
#
####
# Object maze2_1.obj
#
# Vertices: 8
# Faces: 8
#
####
mtllib ./maze2_1.obj.mtl

g maze1

vn 0.554702 0.832049 0.000000
v -109.977898 13.462200 -79.466499
vn -0.894425 0.447219 0.000000
v -114.220596 13.462200 -83.709099
vn 0.554702 -0.832049 0.000000
v -109.977898 0.270900 -79.466499
vn -0.894425 -0.447219 0.000000
v -114.220596 0.270900 -83.709099
vn 0.554700 0.832050 0.000000
v -109.977898 13.462200 93.427101
vn -0.894427 0.447213 0.000000
v -114.220596 13.462200 97.669800
vn 0.554700 -0.832050 0.000000
v -109.977898 0.270900 93.427101
vn -0.894427 -0.447213 0.000000
v -114.220596 0.270900 97.669800
# 8 vertices, 0 vertices normals


usemtl material_0
vt 0.017600 0.023800
vt 0.017600 0.975100
vt 0.000500 0.998400
f 5/1/5 1/2/1 2/3/2
vt 0.000500 0.000500
f 5/1/5 2/3/2 6/4/6
vt 0.023800 0.004300
vt 0.975100 0.004300
vt 0.975100 0.995700
f 7/5/7 3/6/3 1/7/1
vt 0.023800 0.995700
f 7/5/7 1/7/1 5/8/5
vt 0.999500 0.000500
vt 0.999500 0.998400
vt 0.982400 0.975100
f 8/9/8 4/10/4 3/11/3
vt 0.982400 0.023800
f 8/9/8 3/11/3 7/12/7
vt 0.999500 0.995700
vt 0.001600 0.995700
vt 0.001600 0.004300
f 6/13/6 2/14/2 4/15/4
vt 0.999500 0.004300
f 6/13/6 4/15/4 8/16/8
# 8 faces, 16 coords texture

# End of File
