####
#
# OBJ File Generated by Meshlab
#
####
# Object maze2_2.obj
#
# Vertices: 8
# Faces: 10
#
####
mtllib ./maze2_2.obj.mtl

vn 0.000000 0.832052 0.554698
v -109.977898 13.462200 -79.466499
vn 0.577350 0.577350 0.577350
v -12.099300 13.462200 -79.466499
vn 0.577350 0.577351 -0.577350
v -12.099300 13.462200 -83.709099
vn 0.000000 0.447208 -0.894430
v -114.220596 13.462200 -83.709099
vn 0.000000 -0.832052 0.554698
v -109.977898 0.270900 -79.466499
vn 0.577350 -0.577351 0.577350
v -12.099300 0.270900 -79.466499
vn 0.000000 -0.447209 -0.894429
v -114.220596 0.270900 -83.709099
vn 0.577350 -0.577350 -0.577350
v -12.099300 0.270900 -83.709099
# 8 vertices, 0 vertices normals


usemtl material_0
vt 0.017600 0.975100
vt 0.413200 0.975100
vt 0.413200 0.998400
f 1/1/1 2/2/2 3/3/3
vt 0.000500 0.998400
f 1/1/1 3/3/3 4/4/4
vt 0.017600 0.004300
vt 0.413200 0.004300
vt 0.413200 0.995700
f 5/5/5 6/6/6 2/7/2
vt 0.017600 0.995700
f 5/5/5 2/7/2 1/8/1
vt 0.999500 0.998400
vt 0.586800 0.998400
vt 0.586800 0.975100
f 7/9/7 8/10/8 6/11/6
vt 0.982400 0.975100
f 7/9/7 6/11/6 5/12/5
vt 0.999500 0.995700
vt 0.586800 0.995700
vt 0.586800 0.004300
f 4/13/4 3/14/3 8/15/8
vt 0.999500 0.004300
f 4/13/4 8/15/8 7/16/7
vt 0.975100 0.004300
vt 0.998400 0.004300
vt 0.998400 0.995700
f 6/17/6 8/18/8 3/19/3
vt 0.975100 0.995700
f 6/17/6 3/19/3 2/20/2
# 10 faces, 20 coords texture

# End of File
