####
#
# OBJ File Generated by Meshlab
#
####
# Object maze29_1.obj
#
# Vertices: 8
# Faces: 10
#
####
mtllib ./maze29_1.obj.mtl

g maze81

vn 0.000000 0.785410 1.570796
v 120.045097 13.462200 38.547401
vn 0.000000 2.356182 -1.570796
v 115.802498 13.462200 34.304699
vn 0.000000 -0.785409 1.570796
v 120.045097 0.270900 38.547401
vn 0.000000 -2.356182 -1.570796
v 115.802498 0.270900 34.304699
vn -1.570796 1.570796 1.570796
v 55.337200 13.462200 38.547401
vn -1.570796 1.570796 -1.570796
v 55.337200 13.462200 34.304699
vn -1.570796 -1.570796 1.570796
v 55.337200 0.270900 38.547401
vn -1.570796 -1.570795 -1.570796
v 55.337200 0.270900 34.304699
# 8 vertices, 0 vertices normals


usemtl material_0
vt 0.685700 0.325800
vt 0.947200 0.325800
vt 0.930100 0.349100
f 5/1/5 1/2/1 2/3/2
vt 0.685700 0.349100
f 5/1/5 2/3/2 6/4/6
vt 0.685700 0.004300
vt 0.947200 0.004300
vt 0.947200 0.995700
f 7/5/7 3/6/3 1/7/1
vt 0.685700 0.995700
f 7/5/7 1/7/1 5/8/5
vt 0.314300 0.349100
vt 0.069900 0.349100
vt 0.052800 0.325800
f 8/9/8 4/10/4 3/11/3
vt 0.314300 0.325800
f 8/9/8 3/11/3 7/12/7
vt 0.314300 0.995700
vt 0.069900 0.995700
vt 0.069900 0.004300
f 6/13/6 2/14/2 4/15/4
vt 0.314300 0.004300
f 6/13/6 4/15/4 8/16/8
vt 0.674200 0.004300
vt 0.674200 0.995700
vt 0.650900 0.995700
f 7/17/7 5/18/5 6/19/6
vt 0.650900 0.004300
f 8/20/8 7/17/7 6/19/6
# 10 faces, 20 coords texture

# End of File
