####
#
# OBJ File Generated by Meshlab
#
####
# Object maze24.obj
#
# Vertices: 8
# Faces: 12
#
####
mtllib ./maze24.obj.mtl

vn 1.570796 1.570797 -1.570796
v 36.630501 13.462200 -71.930801
vn -1.570796 1.570796 -1.570796
v 10.995400 13.462200 -71.930801
vn -1.570796 1.570797 1.570796
v 10.995400 13.462200 -67.688202
vn 1.570796 1.570796 1.570796
v 36.630501 13.462200 -67.688202
vn 1.570796 -1.570796 -1.570796
v 36.630501 0.270900 -71.930801
vn -1.570796 -1.570797 -1.570796
v 10.995400 0.270900 -71.930801
vn 1.570796 -1.570797 1.570796
v 36.630501 0.270900 -67.688202
vn -1.570796 -1.570796 1.570796
v 10.995400 0.270900 -67.688202
# 8 vertices, 0 vertices normals


usemtl material_0
vt 0.610100 0.933600
vt 0.506500 0.933600
vt 0.506500 0.910300
f 1/1/1 2/2/2 3/3/3
vt 0.610100 0.910300
f 1/1/1 3/3/3 4/4/4
vt 0.389900 0.004300
vt 0.493500 0.004300
vt 0.493500 0.995700
f 5/5/5 6/6/6 2/7/2
vt 0.389900 0.995700
f 5/5/5 2/7/2 1/8/1
vt 0.389900 0.910300
vt 0.493500 0.910300
vt 0.493500 0.933600
f 7/9/7 8/10/8 6/11/6
vt 0.389900 0.933600
f 7/9/7 6/11/6 5/12/5
vt 0.610100 0.995700
vt 0.506500 0.995700
vt 0.506500 0.004300
f 4/13/4 3/14/3 8/15/8
vt 0.610100 0.004300
f 4/13/4 8/15/8 7/16/7
vt 0.066400 0.004300
vt 0.089700 0.004300
vt 0.089700 0.995700
f 6/17/6 8/18/8 3/19/3
vt 0.066400 0.995700
f 6/17/6 3/19/3 2/20/2
vt 0.933600 0.004300
vt 0.933600 0.995700
vt 0.910300 0.995700
f 5/21/5 1/22/1 4/23/4
vt 0.910300 0.004300
f 7/24/7 5/21/5 4/23/4
# 12 faces, 24 coords texture

# End of File
