####
#
# OBJ File Generated by Meshlab
#
####
# Object maze29.obj
#
# Vertices: 8
# Faces: 10
#
####
mtllib ./maze29.obj.mtl

vn 0.577350 0.577350 0.577350
v 120.045097 13.462200 38.547401
vn 0.577350 0.577350 -0.577350
v 120.045097 13.462200 -37.015099
vn -0.577350 0.577350 -0.577350
v 115.802498 13.462200 -37.015099
vn -0.301511 0.904534 -0.301511
v 115.802498 13.462200 34.304699
vn 0.577350 -0.577350 0.577350
v 120.045097 0.270900 38.547401
vn 0.577350 -0.577350 -0.577350
v 120.045097 0.270900 -37.015099
vn -0.301511 -0.904534 -0.301511
v 115.802498 0.270900 34.304699
vn -0.577350 -0.577350 -0.577350
v 115.802498 0.270900 -37.015099
# 8 vertices, 0 vertices normals


usemtl material_0
vt 0.947200 0.325800
vt 0.947200 0.741500
vt 0.930100 0.741500
f 1/1/1 2/2/2 3/3/3
vt 0.930100 0.349100
f 1/1/1 3/3/3 4/4/4
vt 0.325800 0.004300
vt 0.741500 0.004300
vt 0.741500 0.995700
f 5/5/5 6/6/6 2/7/2
vt 0.325800 0.995700
f 5/5/5 2/7/2 1/8/1
vt 0.069900 0.349100
vt 0.069900 0.741500
vt 0.052800 0.741500
f 7/9/7 8/10/8 6/11/6
vt 0.052800 0.325800
f 7/9/7 6/11/6 5/12/5
vt 0.650900 0.995700
vt 0.258500 0.995700
vt 0.258500 0.004300
f 4/13/4 3/14/3 8/15/8
vt 0.650900 0.004300
f 4/13/4 8/15/8 7/16/7
vt 0.052800 0.004300
vt 0.069900 0.004300
vt 0.069900 0.995700
f 6/17/6 8/18/8 3/19/3
vt 0.052800 0.995700
f 6/17/6 3/19/3 2/20/2
# 10 faces, 20 coords texture

# End of File
