####
#
# OBJ File Generated by Meshlab
#
####
# Object maze2_9.obj
#
# Vertices: 8
# Faces: 8
#
####
mtllib ./maze2_9.obj.mtl

vn -0.000042 0.447452 -0.894308
v 43.978199 13.463800 -12.345700
vn -0.000067 0.831700 0.555226
v 48.220798 13.460600 -8.103000
vn -0.000052 -0.447006 -0.894531
v 43.977901 0.272500 -12.347400
vn -0.000063 -0.832333 0.554275
v 48.220501 0.269300 -8.104800
vn 0.000067 0.832650 -0.553800
v 67.765800 13.465400 -12.344800
vn 0.000042 0.446770 0.894649
v 72.008499 13.459000 -8.102100
vn 0.000063 -0.831386 -0.555696
v 67.765198 0.274100 -12.348300
vn 0.000052 -0.447677 0.894195
v 72.007896 0.267700 -8.105700
# 8 vertices, 0 vertices normals


usemtl material_0
vt 0.736000 0.605800
vt 0.639800 0.605800
vt 0.657000 0.582500
f 5/1/5 1/2/1 2/3/2
vt 0.753100 0.582500
f 5/1/5 2/3/2 6/4/6
vt 0.264100 0.004600
vt 0.360200 0.004400
vt 0.360200 0.995800
f 7/5/7 3/6/3 1/7/1
vt 0.264000 0.995900
f 7/5/7 1/7/1 5/8/5
vt 0.246900 0.582500
vt 0.343000 0.582500
vt 0.360200 0.605800
f 8/9/8 4/10/4 3/11/3
vt 0.264100 0.605800
f 8/9/8 3/11/3 7/12/7
vt 0.753100 0.995400
vt 0.657000 0.995600
vt 0.657000 0.004200
f 6/13/6 2/14/2 4/15/4
vt 0.753100 0.004100
f 6/13/6 4/15/4 8/16/8
# 8 faces, 16 coords texture

# End of File
