####
#
# OBJ File Generated by Meshlab
#
####
# Object maze36_3.obj
#
# Vertices: 8
# Faces: 8
#
####
mtllib ./maze36_3.obj.mtl

g maze98

vn 0.551951 0.833804 -0.011038
v 58.887600 13.462200 62.131199
vn -0.897934 0.439763 0.017960
v 54.558201 13.462200 57.834099
vn 0.551951 -0.833804 -0.011038
v 58.887600 0.270900 62.131199
vn -0.897934 -0.439763 0.017960
v 54.558201 0.270900 57.834099
vn 0.898874 0.437837 -0.017976
v 59.118900 13.462200 73.696899
vn -0.551276 0.834250 0.011026
v 54.788799 13.462200 69.363098
vn 0.898874 -0.437838 -0.017976
v 59.118900 0.270900 73.696899
vn -0.551276 -0.834250 0.011026
v 54.788799 0.270900 69.363098
# 8 vertices, 0 vertices normals


usemtl material_0
vt 0.701000 0.132400
vt 0.700100 0.196000
vt 0.682600 0.219700
f 5/1/5 1/2/1 2/3/2
vt 0.683500 0.156200
f 5/1/5 2/3/2 6/4/6
vt 0.132400 0.004300
vt 0.196000 0.004300
vt 0.196000 0.995700
f 7/5/7 3/6/3 1/7/1
vt 0.132400 0.995700
f 7/5/7 1/7/1 5/8/5
vt 0.316500 0.156200
vt 0.317400 0.219700
vt 0.299900 0.196000
f 8/9/8 4/10/4 3/11/3
vt 0.299000 0.132400
f 8/9/8 3/11/3 7/12/7
vt 0.843800 0.995700
vt 0.780300 0.995700
vt 0.780300 0.004300
f 6/13/6 2/14/2 4/15/4
vt 0.843800 0.004300
f 6/13/6 4/15/4 8/16/8
# 8 faces, 16 coords texture

# End of File
