####
#
# OBJ File Generated by Meshlab
#
####
# Object maze26.obj
#
# Vertices: 8
# Faces: 12
#
####
mtllib ./maze26.obj.mtl

vn 1.599082 1.570786 1.541975
v 48.220299 13.462200 -59.224499
vn 1.541993 1.570808 -1.599099
v 47.989300 13.462200 -71.926598
vn -1.599081 1.570785 -1.541975
v 43.747398 13.462200 -71.849503
vn -1.541991 1.570807 1.599099
v 43.978401 13.462200 -59.147400
vn 1.599082 -1.570786 1.541975
v 48.220299 0.270900 -59.224499
vn 1.541993 -1.570807 -1.599099
v 47.989300 0.270900 -71.926598
vn -1.541991 -1.570807 1.599099
v 43.978401 0.270900 -59.147400
vn -1.599080 -1.570785 -1.541975
v 43.747398 0.270900 -71.849503
# 8 vertices, 0 vertices normals


usemtl material_0
vt 0.657000 0.863700
vt 0.656000 0.933600
vt 0.638900 0.933200
f 1/1/1 2/2/2 3/3/3
vt 0.639800 0.863300
f 1/1/1 3/3/3 4/4/4
vt 0.863700 0.004300
vt 0.933600 0.004300
vt 0.933600 0.995700
f 5/5/5 6/6/6 2/7/2
vt 0.863700 0.995700
f 5/5/5 2/7/2 1/8/1
vt 0.360200 0.863300
vt 0.361100 0.933200
vt 0.344000 0.933600
f 7/9/7 8/10/8 6/11/6
vt 0.343000 0.863700
f 7/9/7 6/11/6 5/12/5
vt 0.136700 0.995700
vt 0.066800 0.995700
vt 0.066800 0.004300
f 4/13/4 3/14/3 8/15/8
vt 0.136700 0.004300
f 4/13/4 8/15/8 7/16/7
vt 0.344000 0.004300
vt 0.361100 0.004300
vt 0.361100 0.995700
f 6/17/6 8/18/8 3/19/3
vt 0.344000 0.995700
f 6/17/6 3/19/3 2/20/2
vt 0.657000 0.004300
vt 0.657000 0.995700
vt 0.639800 0.995700
f 5/21/5 1/22/1 4/23/4
vt 0.639800 0.004300
f 7/24/7 5/21/5 4/23/4
# 12 faces, 24 coords texture

# End of File
