####
#
# OBJ File Generated by Meshlab
#
####
# Object maze2_3.obj
#
# Vertices: 8
# Faces: 8
#
####
mtllib ./maze2_3.obj.mtl

vn 0.000000 0.832050 -0.554700
v -109.977898 13.462200 93.427101
vn 0.000000 0.447213 0.894428
v -114.220596 13.462200 97.669800
vn 0.000000 -0.832051 -0.554700
v -109.977898 0.270900 93.427101
vn 0.000000 -0.447213 0.894427
v -114.220596 0.270900 97.669800
vn 0.000000 0.832122 -0.554593
v 128.732697 13.462200 93.427101
vn 0.000000 0.446913 0.894577
v 132.980896 13.462200 97.669701
vn 0.000000 -0.832122 -0.554593
v 128.732697 0.270900 93.427101
vn 0.000000 -0.446914 0.894577
v 132.980896 0.270900 97.669701
# 8 vertices, 0 vertices normals


usemtl material_0
vt 0.982300 0.023800
vt 0.017600 0.023800
vt 0.000500 0.000500
f 5/1/5 1/2/1 2/3/2
vt 0.999500 0.000500
f 5/1/5 2/3/2 6/4/6
vt 0.017700 0.004300
vt 0.982400 0.004300
vt 0.982400 0.995700
f 7/5/7 3/6/3 1/7/1
vt 0.017700 0.995700
f 7/5/7 1/7/1 5/8/5
vt 0.982400 0.023800
f 8/3/8 4/4/4 3/9/3
vt 0.017700 0.023800
f 8/3/8 3/9/3 7/10/7
vt 0.999500 0.995700
vt 0.000500 0.995700
vt 0.000500 0.004300
f 6/11/6 2/12/2 4/13/4
vt 0.999500 0.004300
f 6/11/6 4/13/4 8/14/8
# 8 faces, 14 coords texture

# End of File
