####
#
# OBJ File Generated by Meshlab
#
####
# Object maze28.obj
#
# Vertices: 12
# Faces: 20
#
####
mtllib ./maze28.obj.mtl

vn 1.570796 1.570796 1.570796
v 120.507004 13.462200 -42.976898
vn 1.570796 1.570796 -1.570796
v 120.507004 13.462200 -71.888000
vn -1.570796 1.570796 -1.570796
v 116.264397 13.462200 -71.888000
vn -1.570796 4.712389 -1.570796
v 116.264397 13.462200 -47.219501
vn 1.570796 -1.570796 1.570796
v 120.507004 0.270900 -42.976898
vn 1.570796 -1.570796 -1.570796
v 120.507004 0.270900 -71.888000
vn -1.570796 -4.712389 -1.570796
v 116.264397 0.270900 -47.219501
vn -1.570796 -1.570796 -1.570796
v 116.264397 0.270900 -71.888000
vn -1.570796 1.570796 1.570796
v 107.993103 13.462200 -42.976898
vn -1.570796 1.570796 -1.570796
v 107.993103 13.462200 -47.219501
vn -1.570796 -1.570796 1.570796
v 107.993103 0.270900 -42.976898
vn -1.570796 -1.570796 -1.570796
v 107.993103 0.270900 -47.219501
# 12 vertices, 0 vertices normals


usemtl material_0
vt 0.949100 0.774300
vt 0.949100 0.933400
vt 0.931900 0.933400
f 1/1/1 2/2/2 3/3/3
vt 0.931900 0.797700
f 1/1/1 3/3/3 4/4/4
vt 0.774300 0.004300
vt 0.933400 0.004300
vt 0.933400 0.995700
f 5/5/5 6/6/6 2/7/2
vt 0.774300 0.995700
f 5/5/5 2/7/2 1/8/1
vt 0.068100 0.797700
vt 0.068100 0.933400
vt 0.050900 0.933400
f 7/9/7 8/10/8 6/11/6
vt 0.050900 0.774300
f 7/9/7 6/11/6 5/12/5
vt 0.202300 0.995700
vt 0.066600 0.995700
vt 0.066600 0.004300
f 4/13/4 3/14/3 8/15/8
vt 0.202300 0.004300
f 4/13/4 8/15/8 7/16/7
vt 0.898500 0.774300
f 9/17/9 1/1/1 4/4/4
vt 0.898500 0.797700
f 9/17/9 4/4/4 10/18/10
vt 0.898500 0.004300
vt 0.949100 0.004300
vt 0.949100 0.995700
f 11/19/11 5/20/5 1/21/1
vt 0.898500 0.995700
f 11/19/11 1/21/1 9/22/9
vt 0.101500 0.797700
f 12/23/12 7/9/7 5/12/5
vt 0.101500 0.774300
f 12/23/12 5/12/5 11/24/11
vt 0.101500 0.995700
vt 0.068100 0.995700
vt 0.068100 0.004300
f 10/25/10 4/26/4 7/27/7
vt 0.101500 0.004300
f 10/25/10 7/27/7 12/28/12
vt 0.050900 0.004300
f 6/29/6 8/27/8 3/26/3
vt 0.050900 0.995700
f 6/29/6 3/26/3 2/30/2
vt 0.225700 0.004300
vt 0.225700 0.995700
f 11/31/11 9/32/9 10/13/10
f 12/16/12 11/31/11 10/13/10
# 20 faces, 32 coords texture

# End of File
