####
#
# OBJ File Generated by Meshlab
#
####
# Object maze22.obj
#
# Vertices: 12
# Faces: 20
#
####
mtllib ./maze22.obj.mtl

vn 1.570605 1.555166 1.546247
v 48.254101 13.462200 -20.344101
vn 1.546094 1.570821 -1.595154
v 47.989399 13.462200 -37.279099
vn -1.595115 1.570776 -1.546062
v 43.747299 13.462200 -37.212898
vn -1.570605 4.728013 -1.546254
v 43.944599 13.462200 -24.586700
vn 1.570604 -1.555167 1.546247
v 48.254101 0.270900 -20.344101
vn 1.546094 -1.570821 -1.595154
v 47.989399 0.270900 -37.279099
vn -1.570605 -4.728014 -1.546254
v 43.944599 0.270900 -24.586700
vn -1.595115 -1.570776 -1.546062
v 43.747299 0.270900 -37.212898
vn -1.570796 1.570796 1.570796
v 10.995400 13.462200 -20.344101
vn -1.570796 1.570796 -1.570796
v 10.995400 13.462200 -24.586700
vn -1.570796 -1.570796 1.570796
v 10.995400 0.270900 -20.344101
vn -1.570796 -1.570796 -1.570796
v 10.995400 0.270900 -24.586700
# 12 vertices, 0 vertices normals


usemtl material_0
vt 0.657100 0.649800
vt 0.656000 0.743000
vt 0.638900 0.742600
f 1/1/1 2/2/2 3/3/3
vt 0.639700 0.673100
f 1/1/1 3/3/3 4/4/4
vt 0.649800 0.004300
vt 0.743000 0.004300
vt 0.743000 0.995700
f 5/5/5 6/6/6 2/7/2
vt 0.649800 0.995700
f 5/5/5 2/7/2 1/8/1
vt 0.360300 0.673100
vt 0.361100 0.742600
vt 0.344000 0.743000
f 7/9/7 8/10/8 6/11/6
vt 0.342900 0.649800
f 7/9/7 6/11/6 5/12/5
vt 0.326900 0.995700
vt 0.257400 0.995700
vt 0.257400 0.004300
f 4/13/4 3/14/3 8/15/8
vt 0.326900 0.004300
f 4/13/4 8/15/8 7/16/7
vt 0.506500 0.649800
f 9/17/9 1/1/1 4/4/4
vt 0.506500 0.673100
f 9/17/9 4/4/4 10/18/10
vt 0.506500 0.004300
vt 0.657100 0.004300
vt 0.657100 0.995700
f 11/19/11 5/20/5 1/21/1
vt 0.506500 0.995700
f 11/19/11 1/21/1 9/22/9
vt 0.493500 0.673100
f 12/23/12 7/9/7 5/12/5
vt 0.493500 0.649800
f 12/23/12 5/12/5 11/24/11
vt 0.493500 0.995700
vt 0.360300 0.995700
vt 0.360300 0.004300
f 10/25/10 4/26/4 7/27/7
vt 0.493500 0.004300
f 10/25/10 7/27/7 12/28/12
vt 0.344000 0.004300
vt 0.361100 0.004300
vt 0.361100 0.995700
f 6/29/6 8/30/8 3/31/3
vt 0.344000 0.995700
f 6/29/6 3/31/3 2/32/2
vt 0.350200 0.004300
vt 0.350200 0.995700
f 11/33/11 9/34/9 10/13/10
f 12/16/12 11/33/11 10/13/10
# 20 faces, 34 coords texture

# End of File
