####
#
# OBJ File Generated by Meshlab
#
####
# Object maze27.obj
#
# Vertices: 8
# Faces: 12
#
####
mtllib ./maze27.obj.mtl

g maze78

vn 1.586600 1.570805 1.554847
v 59.306000 13.462200 -20.177401
vn 1.554869 1.570811 -1.586586
v 59.075001 13.462200 -43.041100
vn -1.586563 1.570782 -1.554847
v 54.832600 13.462200 -42.998299
vn -1.554833 1.570787 1.586586
v 55.063599 13.462200 -20.134501
vn 1.586599 -1.570805 1.554847
v 59.306000 0.270900 -20.177401
vn 1.554869 -1.570811 -1.586586
v 59.075001 0.270900 -43.041100
vn -1.554833 -1.570788 1.586585
v 55.063599 0.270900 -20.134501
vn -1.586563 -1.570782 -1.554847
v 54.832600 0.270900 -42.998299
# 8 vertices, 0 vertices normals


usemtl material_0
vt 0.701800 0.648900
vt 0.700800 0.774700
vt 0.683700 0.774400
f 1/1/1 2/2/2 3/3/3
vt 0.684600 0.648700
f 1/1/1 3/3/3 4/4/4
vt 0.648900 0.004300
vt 0.774700 0.004300
vt 0.774700 0.995700
f 5/5/5 6/6/6 2/7/2
vt 0.648900 0.995700
f 5/5/5 2/7/2 1/8/1
vt 0.315400 0.648700
vt 0.316300 0.774400
vt 0.299200 0.774700
f 7/9/7 8/10/8 6/11/6
vt 0.298200 0.648900
f 7/9/7 6/11/6 5/12/5
vt 0.351300 0.995700
vt 0.225600 0.995700
vt 0.225600 0.004300
f 4/13/4 3/14/3 8/15/8
vt 0.351300 0.004300
f 4/13/4 8/15/8 7/16/7
vt 0.299200 0.004300
vt 0.316300 0.004300
vt 0.316300 0.995700
f 6/17/6 8/18/8 3/19/3
vt 0.299200 0.995700
f 6/17/6 3/19/3 2/20/2
vt 0.701800 0.004300
vt 0.701800 0.995700
vt 0.684600 0.995700
f 5/21/5 1/22/1 4/23/4
vt 0.684600 0.004300
f 7/24/7 5/21/5 4/23/4
# 12 faces, 24 coords texture

# End of File
