####
#
# OBJ File Generated by Meshlab
#
####
# Object maze40.obj
#
# Vertices: 8
# Faces: 10
#
####
mtllib ./maze40.obj.mtl

g maze108

vn 0.577350 0.577350 0.577350
v 108.035896 13.513000 -55.448002
vn 0.577350 0.577350 -0.577350
v 108.035896 13.513000 -79.509300
vn -0.577350 0.577350 -0.577350
v 103.793198 13.513000 -79.509300
vn -0.301514 0.904533 -0.301512
v 103.793198 13.513000 -59.690701
vn 0.577350 -0.577350 0.577350
v 108.035896 0.220000 -55.448002
vn 0.577350 -0.577350 -0.577350
v 108.035896 0.220000 -79.509300
vn -0.301510 -0.904535 -0.301511
v 103.793198 0.220000 -59.690601
vn -0.577350 -0.577350 -0.577350
v 103.793198 0.220000 -79.509300
# 8 vertices, 0 vertices normals


usemtl material_0
vt 0.898700 0.842900
vt 0.898700 0.975300
vt 0.881500 0.975300
f 1/1/1 2/2/2 3/3/3
vt 0.881500 0.866300
f 1/1/1 3/3/3 4/4/4
vt 0.842900 0.000500
vt 0.975300 0.000500
vt 0.975300 0.999500
f 5/5/5 6/6/6 2/7/2
vt 0.842900 0.999500
f 5/5/5 2/7/2 1/8/1
vt 0.118500 0.866300
vt 0.118500 0.975300
vt 0.101300 0.975300
f 7/9/7 8/10/8 6/11/6
vt 0.101300 0.842900
f 7/9/7 6/11/6 5/12/5
vt 0.133700 0.999500
vt 0.024700 0.999500
vt 0.024700 0.000500
f 4/13/4 3/14/3 8/15/8
vt 0.133700 0.000500
f 4/13/4 8/15/8 7/16/7
vt 0.101300 0.000500
vt 0.118500 0.000500
vt 0.118500 0.999500
f 6/17/6 8/18/8 3/19/3
vt 0.101300 0.999500
f 6/17/6 3/19/3 2/20/2
# 10 faces, 20 coords texture

# End of File
