####
#
# OBJ File Generated by Meshlab
#
####
# Object maze37.obj
#
# Vertices: 8
# Faces: 12
#
####
mtllib ./maze37.obj.mtl

g maze102

vn 1.570796 1.570796 1.570796
v 83.786499 13.462200 74.070396
vn 1.570796 1.570796 -1.570796
v 83.786499 13.462200 61.830200
vn -1.570796 1.570796 -1.570796
v 79.543800 13.462200 61.830200
vn -1.570796 1.570796 1.570796
v 79.543800 13.462200 74.070396
vn 1.570796 -1.570796 1.570796
v 83.786499 0.270900 74.070396
vn 1.570796 -1.570796 -1.570796
v 83.786499 0.270900 61.830200
vn -1.570796 -1.570796 1.570796
v 79.543800 0.270900 74.070396
vn -1.570796 -1.570796 -1.570796
v 79.543800 0.270900 61.830200
# 8 vertices, 0 vertices normals


usemtl material_0
vt 0.800700 0.130300
vt 0.800700 0.197700
vt 0.783500 0.197700
f 1/1/1 2/2/2 3/3/3
vt 0.783500 0.130300
f 1/1/1 3/3/3 4/4/4
vt 0.130300 0.004300
vt 0.197700 0.004300
vt 0.197700 0.995700
f 5/5/5 6/6/6 2/7/2
vt 0.130300 0.995700
f 5/5/5 2/7/2 1/8/1
vt 0.216500 0.130300
vt 0.216500 0.197700
vt 0.199300 0.197700
f 7/9/7 8/10/8 6/11/6
vt 0.199300 0.130300
f 7/9/7 6/11/6 5/12/5
vt 0.869700 0.995700
vt 0.802300 0.995700
vt 0.802300 0.004300
f 4/13/4 3/14/3 8/15/8
vt 0.869700 0.004300
f 4/13/4 8/15/8 7/16/7
vt 0.199300 0.004300
vt 0.216500 0.004300
vt 0.216500 0.995700
f 6/17/6 8/18/8 3/19/3
vt 0.199300 0.995700
f 6/17/6 3/19/3 2/20/2
vt 0.800700 0.004300
vt 0.800700 0.995700
vt 0.783500 0.995700
f 5/21/5 1/22/1 4/23/4
vt 0.783500 0.004300
f 7/24/7 5/21/5 4/23/4
# 12 faces, 24 coords texture

# End of File
