####
#
# OBJ File Generated by Meshlab
#
####
# Object maze2_8.obj
#
# Vertices: 8
# Faces: 8
#
####
mtllib ./maze2_8.obj.mtl

vn -0.554805 0.831980 0.000104
v 43.978001 13.462200 0.124600
vn 0.894426 0.447216 0.000035
v 48.220600 13.462200 4.367200
vn -0.554799 -0.831984 0.000068
v 43.978001 0.270900 0.124600
vn 0.894428 -0.447212 0.000061
v 48.220600 0.270900 4.367200
vn -0.894368 0.447332 -0.000035
v 43.978199 13.463800 -12.345700
vn 0.555277 0.831666 -0.000104
v 48.220798 13.460600 -8.103000
vn -0.894489 -0.447090 -0.000061
v 43.977901 0.272500 -12.347400
vn 0.554326 -0.832300 -0.000068
v 48.220501 0.269300 -8.104800
# 8 vertices, 0 vertices normals


usemtl material_0
vt 0.639800 0.605800
vt 0.639800 0.537200
vt 0.657000 0.513800
f 5/1/5 1/2/1 2/3/2
vt 0.657000 0.582500
f 5/1/5 2/3/2 6/4/6
vt 0.394200 0.004400
vt 0.462800 0.004300
vt 0.462800 0.995700
f 7/5/7 3/6/3 1/7/1
vt 0.394200 0.995800
f 7/5/7 1/7/1 5/8/5
vt 0.343000 0.582500
vt 0.343000 0.513800
vt 0.360200 0.537200
f 8/9/8 4/10/4 3/11/3
vt 0.360200 0.605800
f 8/9/8 3/11/3 7/12/7
vt 0.582500 0.995600
vt 0.513800 0.995700
vt 0.513800 0.004300
f 6/13/6 2/14/2 4/15/4
vt 0.582500 0.004200
f 6/13/6 4/15/4 8/16/8
# 8 faces, 16 coords texture

# End of File
