####
#
# OBJ File Generated by Meshlab
#
####
# Object maze17_2.obj
#
# Vertices: 8
# Faces: 8
#
####
mtllib ./maze17_2.obj.mtl

vn 0.000000 0.831920 -0.554896
v -0.283300 13.462200 10.286200
vn 0.000000 0.447762 0.894153
v -4.515800 13.462200 14.528900
vn 0.000000 -0.831919 -0.554896
v -0.283300 0.270900 10.286200
vn 0.000000 -0.447762 0.894153
v -4.515800 0.270900 14.528900
vn 0.000000 0.832049 -0.554702
v 54.832500 13.462200 10.286200
vn 0.000000 0.447219 0.894424
v 59.075100 13.462200 14.528900
vn 0.000000 -0.832049 -0.554702
v 54.832500 0.270900 10.286200
vn 0.000000 -0.447219 0.894425
v 59.075100 0.270900 14.528900
# 8 vertices, 0 vertices normals


usemtl material_0
vt 0.683700 0.481300
vt 0.460900 0.481300
vt 0.443800 0.457900
f 5/1/5 1/2/1 2/3/2
vt 0.700800 0.457900
f 5/1/5 2/3/2 6/4/6
vt 0.316300 0.004300
vt 0.539100 0.004300
vt 0.539100 0.995700
f 7/5/7 3/6/3 1/7/1
vt 0.316300 0.995700
f 7/5/7 1/7/1 5/8/5
vt 0.299200 0.457900
vt 0.556200 0.457900
vt 0.539100 0.481300
f 8/9/8 4/10/4 3/11/3
vt 0.316300 0.481300
f 8/9/8 3/11/3 7/12/7
vt 0.700800 0.995700
vt 0.443800 0.995700
vt 0.443800 0.004300
f 6/13/6 2/14/2 4/15/4
vt 0.700800 0.004300
f 6/13/6 4/15/4 8/16/8
# 8 faces, 16 coords texture

# End of File
