####
#
# OBJ File Generated by Meshlab
#
####
# Object maze2_5.obj
#
# Vertices: 8
# Faces: 8
#
####
mtllib ./maze2_5.obj.mtl

g maze5

vn 0.000000 0.831979 0.554808
v 128.507294 13.462200 -79.235497
vn 0.000000 0.447515 -0.894277
v 132.744400 13.462200 -83.478203
vn 0.000000 -0.831979 0.554808
v 128.507294 0.270900 -79.235497
vn 0.000000 -0.447514 -0.894277
v 132.744400 0.270900 -83.478203
vn 0.000000 0.832050 0.554700
v 11.269200 13.462200 -79.235497
vn 0.000000 0.447214 -0.894427
v 7.026500 13.462200 -83.478203
vn 0.000000 -0.832050 0.554700
v 11.269200 0.270900 -79.235497
vn 0.000000 -0.447214 -0.894427
v 7.026500 0.270900 -83.478203
# 8 vertices, 0 vertices normals


usemtl material_0
vt 0.507600 0.973800
vt 0.981400 0.973800
vt 0.998500 0.997200
f 5/1/5 1/2/1 2/3/2
vt 0.490500 0.997200
f 5/1/5 2/3/2 6/4/6
vt 0.507600 0.004300
vt 0.981400 0.004300
vt 0.981400 0.995700
f 7/5/7 3/6/3 1/7/1
vt 0.507600 0.995700
f 7/5/7 1/7/1 5/8/5
vt 0.509500 0.997200
vt 0.001500 0.997200
vt 0.018600 0.973800
f 8/9/8 4/10/4 3/11/3
vt 0.492400 0.973800
f 8/9/8 3/11/3 7/12/7
vt 0.509500 0.995700
vt 0.001500 0.995700
vt 0.001500 0.004300
f 6/13/6 2/14/2 4/15/4
vt 0.509500 0.004300
f 6/13/6 4/15/4 8/16/8
# 8 faces, 16 coords texture

# End of File
