####
#
# OBJ File Generated by Meshlab
#
####
# Object maze17_3.obj
#
# Vertices: 8
# Faces: 8
#
####
mtllib ./maze17_3.obj.mtl

vn -0.554816 0.831973 0.000117
v 54.832500 13.462200 10.286200
vn 0.894429 0.447211 0.000036
v 59.075100 13.462200 14.528900
vn -0.554808 -0.831979 0.000068
v 54.832500 0.270900 10.286200
vn 0.894431 -0.447206 0.000067
v 59.075100 0.270900 14.528900
vn -0.894366 0.447336 -0.000036
v 54.832699 13.463800 -0.798300
vn 0.555290 0.831657 -0.000117
v 59.075298 13.460600 3.444300
vn -0.894491 -0.447086 -0.000067
v 54.832401 0.272500 -0.800100
vn 0.554336 -0.832293 -0.000068
v 59.075001 0.269300 3.442600
# 8 vertices, 0 vertices normals


usemtl material_0
vt 0.683700 0.542300
vt 0.683700 0.481300
vt 0.700800 0.457900
f 5/1/5 1/2/1 2/3/2
vt 0.700800 0.518900
f 5/1/5 2/3/2 6/4/6
vt 0.457700 0.004400
vt 0.518700 0.004300
vt 0.518700 0.995700
f 7/5/7 3/6/3 1/7/1
vt 0.457700 0.995800
f 7/5/7 1/7/1 5/8/5
vt 0.299200 0.518900
vt 0.299200 0.457900
vt 0.316300 0.481300
f 8/9/8 4/10/4 3/11/3
vt 0.316300 0.542300
f 8/9/8 3/11/3 7/12/7
vt 0.518900 0.995600
vt 0.457900 0.995700
vt 0.457900 0.004300
f 6/13/6 2/14/2 4/15/4
vt 0.518900 0.004200
f 6/13/6 4/15/4 8/16/8
# 8 faces, 16 coords texture

# End of File
