####
#
# OBJ File Generated by Meshlab
#
####
# Object maze40_1.obj
#
# Vertices: 8
# Faces: 10
#
####
mtllib ./maze40_1.obj.mtl

g maze107

vn 0.000000 0.785398 1.570796
v 108.035896 13.513000 -55.448002
vn -0.000002 2.356181 -1.570796
v 103.793198 13.513000 -59.690701
vn 0.000000 -0.785387 1.570796
v 108.035896 0.220000 -55.448002
vn -0.000002 -2.356217 -1.570796
v 103.793198 0.220000 -59.690601
vn -1.570796 1.570796 1.570796
v 19.771400 13.513000 -55.448002
vn -1.570797 1.570796 -1.570796
v 19.771400 13.513000 -59.690601
vn -1.570796 -1.570796 1.570796
v 19.771400 0.220000 -55.448002
vn -1.570796 -1.570797 -1.570796
v 19.771400 0.220000 -59.690601
# 8 vertices, 0 vertices normals


usemtl material_0
vt 0.542000 0.842900
vt 0.898700 0.842900
vt 0.881500 0.866300
f 5/1/5 1/2/1 2/3/2
vt 0.542000 0.866300
f 5/1/5 2/3/2 6/4/6
vt 0.542000 0.000500
vt 0.898700 0.000500
vt 0.898700 0.999500
f 7/5/7 3/6/3 1/7/1
vt 0.542000 0.999500
f 7/5/7 1/7/1 5/8/5
vt 0.458000 0.866300
vt 0.118500 0.866300
vt 0.101300 0.842900
f 8/9/8 4/10/4 3/11/3
vt 0.458000 0.842900
f 8/9/8 3/11/3 7/12/7
vt 0.458000 0.999500
vt 0.118500 0.999500
vt 0.118500 0.000500
f 6/13/6 2/14/2 4/15/4
vt 0.458000 0.000500
f 6/13/6 4/15/4 8/16/8
vt 0.157100 0.000500
vt 0.157100 0.999500
vt 0.133700 0.999500
f 7/17/7 5/18/5 6/19/6
vt 0.133700 0.000500
f 8/20/8 7/17/7 6/19/6
# 10 faces, 20 coords texture

# End of File
