####
#
# OBJ File Generated by Meshlab
#
####
# Object maze32.obj
#
# Vertices: 8
# Faces: 10
#
####
mtllib ./maze32.obj.mtl

vn 0.580760 0.576207 0.575068
v 71.811401 13.462200 26.782101
vn 0.568109 0.577350 -0.586446
v 71.545998 13.462200 10.064400
vn -0.586444 0.577351 -0.568111
v 67.303902 13.462200 10.131800
vn -0.299113 0.907087 -0.296183
v 67.500397 13.462200 22.513399
vn 0.580760 -0.576208 0.575067
v 71.811401 0.270900 26.782101
vn 0.568110 -0.577350 -0.586446
v 71.545998 0.270900 10.064400
vn -0.299113 -0.907087 -0.296183
v 67.500397 0.270900 22.513399
vn -0.586444 -0.577351 -0.568110
v 67.303902 0.270900 10.131800
# 8 vertices, 0 vertices normals


usemtl material_0
vt 0.752300 0.390500
vt 0.751200 0.482500
vt 0.734100 0.482100
f 1/1/1 2/2/2 3/3/3
vt 0.734900 0.414000
f 1/1/1 3/3/3 4/4/4
vt 0.390500 0.004300
vt 0.482500 0.004300
vt 0.482500 0.995700
f 5/5/5 6/6/6 2/7/2
vt 0.390500 0.995700
f 5/5/5 2/7/2 1/8/1
vt 0.265100 0.414000
vt 0.265900 0.482100
vt 0.248800 0.482500
f 7/9/7 8/10/8 6/11/6
vt 0.247700 0.390500
f 7/9/7 6/11/6 5/12/5
vt 0.586000 0.995700
vt 0.517900 0.995700
vt 0.517900 0.004300
f 4/13/4 3/14/3 8/15/8
vt 0.586000 0.004300
f 4/13/4 8/15/8 7/16/7
vt 0.248800 0.004300
vt 0.265900 0.004300
vt 0.265900 0.995700
f 6/17/6 8/18/8 3/19/3
vt 0.248800 0.995700
f 6/17/6 3/19/3 2/20/2
# 10 faces, 20 coords texture

# End of File
