####
#
# OBJ File Generated by Meshlab
#
####
# Object maze3_2.obj
#
# Vertices: 8
# Faces: 10
#
####
mtllib ./maze3_2.obj.mtl

g maze17

vn -0.894425 0.447219 0.000000
v -101.287598 13.462200 -71.468903 0.588235 0.588235 0.588235
vn -0.577350 0.577350 0.577350
v -101.287598 13.462200 -55.028900 0.000000 0.000000 0.000000
vn 0.577350 0.577350 0.577350
v -97.044899 13.462200 -55.028900 0.000000 0.000000 0.000000
vn 0.554702 0.832049 0.000000
v -97.044899 13.462200 -67.226303 0.588235 0.588235 0.588235
vn -0.894425 -0.447219 0.000000
v -101.287598 0.270900 -71.468903 0.588235 0.588235 0.588235
vn -0.577350 -0.577350 0.577350
v -101.287598 0.270900 -55.028900 0.588235 0.588235 0.588235
vn 0.554702 -0.832049 0.000000
v -97.044899 0.270900 -67.226303 0.588235 0.588235 0.588235
vn 0.577350 -0.577350 0.577350
v -97.044899 0.270900 -55.028900 0.588235 0.588235 0.588235
# 8 vertices, 0 vertices normals


usemtl material_0
vt 0.052800 0.931100
vt 0.052800 0.840600
vt 0.069900 0.840600
f 1/1/1 2/2/2 3/3/3
vt 0.069900 0.907700
f 1/1/1 3/3/3 4/4/4
vt 0.068900 0.004300
vt 0.159400 0.004300
vt 0.159400 0.995700
f 5/5/5 6/6/6 2/7/2
vt 0.068900 0.995700
f 5/5/5 2/7/2 1/8/1
vt 0.930100 0.907700
vt 0.930100 0.840600
vt 0.947200 0.840600
f 7/9/7 8/10/8 6/11/6
vt 0.947200 0.931100
f 7/9/7 6/11/6 5/12/5
vt 0.907700 0.995700
vt 0.840600 0.995700
vt 0.840600 0.004300
f 4/13/4 3/14/3 8/15/8
vt 0.907700 0.004300
f 4/13/4 8/15/8 7/16/7
vt 0.052800 0.004300
vt 0.069900 0.004300
vt 0.069900 0.995700
f 6/17/6 8/18/8 3/19/3
vt 0.052800 0.995700
f 6/17/6 3/19/3 2/20/2
# 10 faces, 20 coords texture

# End of File
