####
#
# OBJ File Generated by Meshlab
#
####
# Object maze4_6.obj
#
# Vertices: 4
# Faces: 2
#
####
mtllib ./maze4_6.obj.mtl

vn 0.000000 0.000000 1.000000
v -64.797997 13.462200 -54.798000
vn 0.000000 0.000000 1.000000
v -60.555302 13.462200 -54.798000
vn 0.000000 0.000000 1.000000
v -64.797997 0.270900 -54.798000
vn 0.000000 0.000000 1.000000
v -60.555302 0.270900 -54.798000
# 4 vertices, 0 vertices normals


usemtl material_0
vt 0.200200 0.004300
vt 0.217400 0.004300
vt 0.217400 0.995700
f 3/1/3 4/2/4 2/3/2
vt 0.200200 0.995700
f 3/1/3 2/3/2 1/4/1
# 2 faces, 4 coords texture

# End of File
