####
#
# OBJ File Generated by Meshlab
#
####
# Object maze40.obj
#
# Vertices: 12
# Faces: 20
#
####
mtllib ./maze40.obj.mtl

vn 1.570796 1.570797 1.570796
v 108.035896 13.513000 -55.448002
vn 1.570796 1.570796 -1.570796
v 108.035896 13.513000 -79.509300
vn -1.570796 1.570796 -1.570796
v 103.793198 13.513000 -79.509300
vn -1.570806 4.712376 -1.570796
v 103.793198 13.513000 -59.690701
vn 1.570796 -1.570797 1.570796
v 108.035896 0.220000 -55.448002
vn 1.570796 -1.570796 -1.570796
v 108.035896 0.220000 -79.509300
vn -1.570791 -4.712399 -1.570796
v 103.793198 0.220000 -59.690601
vn -1.570796 -1.570796 -1.570796
v 103.793198 0.220000 -79.509300
vn -1.570796 1.570796 1.570796
v 19.771400 13.513000 -55.448002
vn -1.570797 1.570796 -1.570796
v 19.771400 13.513000 -59.690601
vn -1.570796 -1.570796 1.570796
v 19.771400 0.220000 -55.448002
vn -1.570796 -1.570797 -1.570796
v 19.771400 0.220000 -59.690601
# 12 vertices, 0 vertices normals


usemtl material_0
vt 0.898700 0.842900
vt 0.898700 0.975300
vt 0.881500 0.975300
f 1/1/1 2/2/2 3/3/3
vt 0.881500 0.866300
f 1/1/1 3/3/3 4/4/4
vt 0.842900 0.000500
vt 0.975300 0.000500
vt 0.975300 0.999500
f 5/5/5 6/6/6 2/7/2
vt 0.842900 0.999500
f 5/5/5 2/7/2 1/8/1
vt 0.118500 0.866300
vt 0.118500 0.975300
vt 0.101300 0.975300
f 7/9/7 8/10/8 6/11/6
vt 0.101300 0.842900
f 7/9/7 6/11/6 5/12/5
vt 0.133700 0.999500
vt 0.024700 0.999500
vt 0.024700 0.000500
f 4/13/4 3/14/3 8/15/8
vt 0.133700 0.000500
f 4/13/4 8/15/8 7/16/7
vt 0.542000 0.842900
f 9/17/9 1/1/1 4/4/4
vt 0.542000 0.866300
f 9/17/9 4/4/4 10/18/10
vt 0.542000 0.000500
vt 0.898700 0.000500
vt 0.898700 0.999500
f 11/19/11 5/20/5 1/21/1
vt 0.542000 0.999500
f 11/19/11 1/21/1 9/22/9
vt 0.458000 0.866300
f 12/23/12 7/9/7 5/12/5
vt 0.458000 0.842900
f 12/23/12 5/12/5 11/24/11
vt 0.458000 0.999500
vt 0.118500 0.999500
vt 0.118500 0.000500
f 10/25/10 4/26/4 7/27/7
vt 0.458000 0.000500
f 10/25/10 7/27/7 12/28/12
vt 0.101300 0.000500
f 6/29/6 8/27/8 3/26/3
vt 0.101300 0.999500
f 6/29/6 3/26/3 2/30/2
vt 0.157100 0.000500
vt 0.157100 0.999500
f 11/31/11 9/32/9 10/13/10
f 12/16/12 11/31/11 10/13/10
# 20 faces, 32 coords texture

# End of File
