####
#
# OBJ File Generated by Meshlab
#
####
# Object maze39.obj
#
# Vertices: 16
# Faces: 28
#
####
mtllib ./maze39.obj.mtl

vn 1.598801 4.687492 -1.581609
v 108.252197 13.462200 81.455200
vn 1.559687 1.570792 -1.581820
v 108.035797 13.462200 50.729801
vn -1.581828 1.570803 -1.559696
v 103.793297 13.462200 50.759701
vn -1.598804 1.595694 1.581607
v 104.038803 13.462200 85.623199
vn 1.598801 -4.687492 -1.581609
v 108.252197 0.270900 81.455200
vn 1.559687 -1.570792 -1.581820
v 108.035797 0.270900 50.729801
vn -1.598804 -1.595695 1.581607
v 104.038803 0.270900 85.623199
vn -1.581828 -1.570802 -1.559696
v 103.793297 0.270900 50.759701
vn -1.542200 4.756786 -1.528857
v 116.899101 13.462200 81.609596
vn 1.542196 1.526397 1.528858
v 121.258003 13.462200 85.930702
vn -1.542200 -4.756786 -1.528857
v 116.899101 0.270900 81.609596
vn 1.542196 -1.526397 1.528858
v 121.258003 0.270900 85.930702
vn -1.611932 1.570796 -1.528554
v 116.265099 13.462200 57.729401
vn 1.528554 1.570796 -1.611931
v 120.506302 13.462200 57.616798
vn -1.611933 -1.570797 -1.528554
v 116.265099 0.270900 57.729401
vn 1.528554 -1.570795 -1.611931
v 120.506302 0.270900 57.616798
# 16 vertices, 0 vertices normals


usemtl material_0
vt 0.899600 0.089700
vt 0.898700 0.258800
vt 0.881500 0.258600
f 1/1/1 2/2/2 3/3/3
vt 0.882500 0.066800
f 1/1/1 3/3/3 4/4/4
vt 0.089700 0.004300
vt 0.258800 0.004300
vt 0.258800 0.995700
f 5/5/5 6/6/6 2/7/2
vt 0.089700 0.995700
f 5/5/5 2/7/2 1/8/1
vt 0.117500 0.066800
vt 0.118500 0.258600
vt 0.101300 0.258800
f 7/9/7 8/10/8 6/11/6
vt 0.100400 0.089700
f 7/9/7 6/11/6 5/12/5
vt 0.933200 0.995700
vt 0.741400 0.995700
vt 0.741400 0.004300
f 4/13/4 3/14/3 8/15/8
vt 0.933200 0.004300
f 4/13/4 8/15/8 7/16/7
vt 0.934500 0.088900
f 9/17/9 1/1/1 4/4/4
vt 0.952100 0.065100
f 9/17/9 4/4/4 10/18/10
vt 0.065500 0.004300
vt 0.100400 0.004300
vt 0.100400 0.995700
f 11/19/11 5/20/5 1/21/1
vt 0.065500 0.995700
f 11/19/11 1/21/1 9/22/9
vt 0.047900 0.065100
f 12/23/12 7/9/7 5/12/5
vt 0.065500 0.088900
f 12/23/12 5/12/5 11/24/11
vt 0.952100 0.995700
vt 0.882500 0.995700
vt 0.882500 0.004300
f 10/25/10 4/26/4 7/27/7
vt 0.952100 0.004300
f 10/25/10 7/27/7 12/28/12
vt 0.931900 0.220200
f 13/29/13 9/17/9 10/18/10
vt 0.949100 0.220900
f 13/29/13 10/18/10 14/30/14
vt 0.779800 0.004300
vt 0.911100 0.004300
vt 0.911100 0.995700
f 15/31/15 11/32/11 9/33/9
vt 0.779800 0.995700
f 15/31/15 9/33/9 13/34/13
vt 0.050900 0.220900
f 16/35/16 12/23/12 11/24/11
vt 0.068100 0.220200
f 16/35/16 11/24/11 15/36/15
vt 0.220900 0.995700
vt 0.065100 0.995700
vt 0.065100 0.004300
f 14/37/14 10/38/10 12/39/12
vt 0.220900 0.004300
f 14/37/14 12/39/12 16/40/16
vt 0.101300 0.004300
vt 0.118500 0.004300
vt 0.118500 0.995700
f 6/41/6 8/42/8 3/43/3
vt 0.101300 0.995700
f 6/41/6 3/43/3 2/44/2
vt 0.068100 0.004300
vt 0.068100 0.995700
vt 0.050900 0.995700
f 15/45/15 13/46/13 14/47/14
vt 0.050900 0.004300
f 16/48/16 15/45/15 14/47/14
# 28 faces, 48 coords texture

# End of File
