####
#
# OBJ File Generated by Meshlab
#
####
# Object maze20.obj
#
# Vertices: 8
# Faces: 12
#
####
mtllib ./maze20.obj.mtl

vn 1.576931 1.570804 1.564650
v 11.731000 13.462200 73.600197
vn 1.564638 1.570789 -1.576919
v 11.500100 13.462200 14.477800
vn -1.576930 1.570804 -1.564650
v 7.257500 13.462200 14.494400
vn -1.564638 1.570789 1.576919
v 7.488400 13.462200 73.616798
vn 1.576931 -1.570804 1.564650
v 11.731000 0.270900 73.600197
vn 1.564639 -1.570790 -1.576919
v 11.500100 0.270900 14.477800
vn -1.564638 -1.570789 1.576919
v 7.488400 0.270900 73.616798
vn -1.576930 -1.570804 -1.564650
v 7.257500 0.270900 14.494400
# 8 vertices, 0 vertices normals


usemtl material_0
vt 0.509500 0.132900
vt 0.508600 0.458200
vt 0.491400 0.458100
f 1/1/1 2/2/2 3/3/3
vt 0.492400 0.132800
f 1/1/1 3/3/3 4/4/4
vt 0.132900 0.004300
vt 0.458200 0.004300
vt 0.458200 0.995700
f 5/5/5 6/6/6 2/7/2
vt 0.132900 0.995700
f 5/5/5 2/7/2 1/8/1
vt 0.507600 0.132800
vt 0.508600 0.458100
vt 0.491400 0.458200
f 7/9/7 8/10/8 6/11/6
vt 0.490500 0.132900
f 7/9/7 6/11/6 5/12/5
vt 0.867200 0.995700
vt 0.541900 0.995700
vt 0.541900 0.004300
f 4/13/4 3/14/3 8/15/8
vt 0.867200 0.004300
f 4/13/4 8/15/8 7/16/7
vt 0.491400 0.004300
vt 0.508600 0.004300
vt 0.508600 0.995700
f 6/17/6 8/18/8 3/19/3
vt 0.491400 0.995700
f 6/17/6 3/19/3 2/20/2
vt 0.509500 0.004300
vt 0.509500 0.995700
vt 0.492400 0.995700
f 5/21/5 1/22/1 4/23/4
vt 0.492400 0.004300
f 7/24/7 5/21/5 4/23/4
# 12 faces, 24 coords texture

# End of File
