####
#
# OBJ File Generated by Meshlab
#
####
# Object maze3_4.obj
#
# Vertices: 8
# Faces: 8
#
####
mtllib ./maze3_4.obj.mtl

g maze19

vn -0.000055 0.447202 0.894433
v -84.573799 13.462200 -42.976898 0.588235 0.588235 0.588235
vn -0.000102 0.832108 -0.554614
v -88.816399 13.462200 -47.219501 0.000000 0.000000 0.000000
vn -0.000083 -0.447187 0.894441
v -84.573799 0.270900 -42.976898 0.588235 0.588235 0.588235
vn -0.000102 -0.832114 -0.554605
v -88.816399 0.270900 -47.219501 0.588235 0.588235 0.588235
vn 0.000102 0.831791 0.555089
v -97.506699 13.460600 -42.976002 0.000000 0.000000 0.000000
vn 0.000055 0.447429 -0.894319
v -101.749298 13.463800 -47.218601 0.094118 0.094118 0.094118
vn 0.000102 -0.832430 0.554130
v -97.507004 0.269300 -42.977798 0.588235 0.588235 0.588235
vn 0.000083 -0.446960 -0.894554
v -101.749603 0.272500 -47.220402 0.588235 0.588235 0.588235
# 8 vertices, 0 vertices normals


usemtl material_0
vt 0.068000 0.774300
vt 0.120300 0.774300
vt 0.103200 0.797700
f 5/1/5 1/2/1 2/3/2
vt 0.050900 0.797700
f 5/1/5 2/3/2 6/4/6
vt 0.068000 0.004200
vt 0.120300 0.004300
vt 0.120300 0.995700
f 7/5/7 3/6/3 1/7/1
vt 0.068000 0.995600
f 7/5/7 1/7/1 5/8/5
vt 0.949100 0.797700
vt 0.896800 0.797700
vt 0.879700 0.774300
f 8/9/8 4/10/4 3/11/3
vt 0.932000 0.774300
f 8/9/8 3/11/3 7/12/7
vt 0.949100 0.995800
vt 0.896800 0.995700
vt 0.896800 0.004300
f 6/13/6 2/14/2 4/15/4
vt 0.949100 0.004400
f 6/13/6 4/15/4 8/16/8
# 8 faces, 16 coords texture

# End of File
