####
#
# OBJ File Generated by Meshlab
#
####
# Object maze2.obj
#
# Vertices: 64
# Faces: 124
#
####
mtllib ./maze2.obj.mtl

vn 1.570796 4.712391 1.570796
v -109.977898 13.462200 -79.466499
vn 1.570796 1.570796 1.570796
v -12.099300 13.462200 -79.466499
vn 1.570796 1.570798 -1.570796
v -12.099300 13.462200 -83.709099
vn -1.570796 1.570796 -1.570796
v -114.220596 13.462200 -83.709099
vn 1.570796 -4.712389 1.570796
v -109.977898 0.270900 -79.466499
vn 1.570796 -1.570798 1.570796
v -12.099300 0.270900 -79.466499
vn -1.570797 -1.570798 -1.570796
v -114.220596 0.270900 -83.709099
vn 1.570796 -1.570796 -1.570796
v -12.099300 0.270900 -83.709099
vn 1.570796 4.712388 -1.570796
v -109.977898 13.462200 93.427101
vn -1.570796 1.570794 1.570796
v -114.220596 13.462200 97.669800
vn 1.570796 -4.712391 -1.570796
v -109.977898 0.270900 93.427101
vn -1.570796 -1.570795 1.570796
v -114.220596 0.270900 97.669800
vn -1.570795 4.713693 -1.568746
v 128.732697 13.462200 93.427101
vn 1.570796 1.569493 1.568745
v 132.980896 13.462200 97.669701
vn -1.570795 -4.713699 -1.568746
v 128.732697 0.270900 93.427101
vn 1.570795 -1.569493 1.568746
v 132.980896 0.270900 97.669701
vn -1.570795 4.711087 1.572847
v 128.507294 13.462200 -79.235497
vn 1.570794 1.572103 -1.572847
v 132.744400 13.462200 -83.478203
vn -1.570795 -4.711084 1.572847
v 128.507294 0.270900 -79.235497
vn 1.570795 -1.572104 -1.572847
v 132.744400 0.270900 -83.478203
vn 1.570796 4.712389 1.570798
v 11.269200 13.462200 -79.235497
vn -1.570796 1.570797 -1.570796
v 7.026500 13.462200 -83.478203
vn 1.570796 -4.712387 1.570798
v 11.269200 0.270900 -79.235497
vn -1.570796 -1.570797 -1.570796
v 7.026500 0.270900 -83.478203
vn 1.570796 4.712391 -1.570794
v 11.269100 13.462200 0.124600
vn -1.570796 1.570796 1.570796
v 7.026500 13.462200 4.367200
vn 1.570796 -4.712390 -1.570794
v 11.269100 0.270900 0.124600
vn -1.570796 -1.570796 1.570796
v 7.026500 0.270900 4.367200
vn -1.571227 4.712391 -1.570501
v 43.978001 13.462200 0.124600
vn 1.570819 1.570813 1.570858
v 48.220600 13.462200 4.367200
vn -1.571207 -4.712397 -1.570604
v 43.978001 0.270900 0.124600
vn 1.570824 -1.570807 1.570903
v 48.220600 0.270900 4.367200
vn -1.570429 1.571081 -1.570303
v 43.978199 13.463800 -12.345700
vn 1.572952 4.712177 1.572525
v 48.220798 13.460600 -8.103000
vn -1.571380 -1.570606 -1.571486
v 43.977901 0.272500 -12.347400
vn 1.569114 -4.712677 1.569030
v 48.220501 0.269300 -8.104800
vn -1.567009 4.712913 -1.567264
v 67.765800 13.465400 -12.344800
vn 1.571795 1.570331 1.571988
v 72.008499 13.459000 -8.102100
vn -1.574656 -4.711929 -1.574488
v 67.765198 0.274100 -12.348300
vn 1.569991 -1.571336 1.569723
v 72.007896 0.267700 -8.105700
vn -1.569491 1.571565 -1.569142
v 67.765999 13.467000 -36.593300
vn 1.576618 4.711668 1.576182
v 72.008598 13.457400 -32.350700
vn -1.572251 -1.570089 -1.572573
v 67.765099 0.275700 -36.598598
vn 1.565156 -4.713144 1.565405
v 72.007698 0.266100 -32.355999
vn -1.562961 4.713407 -1.564016
v 103.793800 13.468600 -36.592400
vn 1.572705 1.570024 1.573410
v 108.036499 13.455700 -32.349800
vn -1.578319 -4.711852 -1.577428
v 103.792603 0.277300 -36.599499
vn 1.569030 -1.571930 1.568546
v 108.035301 0.264500 -32.356899
vn -1.563491 4.713857 1.562358
v 103.796799 13.468600 -42.977501
vn 1.573146 1.569969 -1.572675
v 108.039398 13.455700 -47.220100
vn -1.577932 -4.711460 1.578744
v 103.789703 0.277300 -42.976299
vn 1.568561 -1.572017 -1.569281
v 108.032303 0.264500 -47.218899
vn 1.563042 4.713428 1.563835
v 23.739700 13.468600 -42.980400
vn -1.572688 1.570029 -1.573396
v 19.497000 13.455700 -47.223099
vn 1.578400 -4.711849 1.577304
v 23.740900 0.277300 -42.973301
vn -1.569016 -1.571939 -1.568539
v 19.498199 0.264500 -47.216000
vn 1.563545 4.713868 -1.562384
v 23.736700 13.468600 -36.364399
vn -1.573234 1.570024 1.572677
v 19.494101 13.455700 -32.121799
vn 1.577801 -4.711551 -1.578722
v 23.743799 0.277300 -36.365601
vn -1.568538 -1.572043 1.569276
v 19.501200 0.264500 -32.123001
vn 1.568263 1.571909 -1.566336
v 36.166500 13.468600 -36.362900
vn 1.573539 1.570852 1.575892
v 36.166500 13.455700 -32.120300
vn 1.573487 -1.569853 -1.575215
v 36.170700 0.277300 -36.367100
vn 1.568238 -1.570880 1.565740
v 36.170700 0.264500 -32.124500
# 64 vertices, 0 vertices normals


usemtl material_0
vt 0.017600 0.975100
vt 0.413200 0.975100
vt 0.413200 0.998400
f 1/1/1 2/2/2 3/3/3
vt 0.000500 0.998400
f 1/1/1 3/3/3 4/4/4
vt 0.017600 0.004300
vt 0.413200 0.004300
vt 0.413200 0.995700
f 5/5/5 6/6/6 2/7/2
vt 0.017600 0.995700
f 5/5/5 2/7/2 1/8/1
vt 0.999500 0.998400
vt 0.586800 0.998400
vt 0.586800 0.975100
f 7/9/7 8/10/8 6/11/6
vt 0.982400 0.975100
f 7/9/7 6/11/6 5/12/5
vt 0.999500 0.995700
vt 0.586800 0.995700
vt 0.586800 0.004300
f 4/13/4 3/14/3 8/15/8
vt 0.999500 0.004300
f 4/13/4 8/15/8 7/16/7
vt 0.017600 0.023800
f 9/17/9 1/1/1 4/4/4
vt 0.000500 0.000500
f 9/17/9 4/4/4 10/18/10
vt 0.023800 0.004300
vt 0.975100 0.004300
vt 0.975100 0.995700
f 11/19/11 5/20/5 1/21/1
vt 0.023800 0.995700
f 11/19/11 1/21/1 9/22/9
vt 0.999500 0.000500
f 12/23/12 7/9/7 5/12/5
vt 0.982400 0.023800
f 12/23/12 5/12/5 11/24/11
vt 0.001600 0.995700
vt 0.001600 0.004300
f 10/13/10 4/25/4 7/26/7
f 10/13/10 7/26/7 12/16/12
vt 0.982300 0.023800
f 13/27/13 9/17/9 10/18/10
f 13/27/13 10/18/10 14/23/14
vt 0.017700 0.004300
vt 0.982400 0.004300
vt 0.982400 0.995700
f 15/28/15 11/29/11 9/30/9
vt 0.017700 0.995700
f 15/28/15 9/30/9 13/31/13
f 16/18/16 12/23/12 11/24/11
vt 0.017700 0.023800
f 16/18/16 11/24/11 15/32/15
vt 0.000500 0.995700
vt 0.000500 0.004300
f 14/13/14 10/33/10 12/34/12
f 14/13/14 12/34/12 16/16/16
vt 0.981400 0.973800
f 17/35/17 13/27/13 14/23/14
vt 0.998500 0.997200
f 17/35/17 14/23/14 18/36/18
vt 0.026200 0.004300
vt 0.976200 0.004300
vt 0.976200 0.995700
f 19/37/19 15/38/15 13/39/13
vt 0.026200 0.995700
f 19/37/19 13/39/13 17/40/17
vt 0.001500 0.997200
f 20/41/20 16/18/16 15/32/15
vt 0.018600 0.973800
f 20/41/20 15/32/15 19/42/19
vt 0.997200 0.995700
f 18/43/18 14/33/14 16/34/16
vt 0.997200 0.004300
f 18/43/18 16/34/16 20/44/20
vt 0.507600 0.973800
f 21/45/21 17/35/17 18/36/18
vt 0.490500 0.997200
f 21/45/21 18/36/18 22/46/22
vt 0.507600 0.004300
vt 0.981400 0.004300
vt 0.981400 0.995700
f 23/47/23 19/48/19 17/49/17
vt 0.507600 0.995700
f 23/47/23 17/49/17 21/50/21
vt 0.509500 0.997200
f 24/51/24 20/41/20 19/42/19
vt 0.492400 0.973800
f 24/51/24 19/42/19 23/52/23
vt 0.509500 0.995700
vt 0.001500 0.995700
vt 0.001500 0.004300
f 22/53/22 18/54/18 20/55/20
vt 0.509500 0.004300
f 22/53/22 20/55/20 24/56/24
vt 0.507600 0.537200
f 25/57/25 21/45/21 22/46/22
vt 0.490500 0.513800
f 25/57/25 22/46/22 26/58/26
vt 0.537200 0.004300
vt 0.973800 0.004300
vt 0.973800 0.995700
f 27/59/27 23/60/23 21/61/21
vt 0.537200 0.995700
f 27/59/27 21/61/21 25/62/25
vt 0.509500 0.513800
f 28/63/28 24/51/24 23/52/23
vt 0.492400 0.537200
f 28/63/28 23/52/23 27/64/27
vt 0.486200 0.995700
vt 0.002800 0.995700
vt 0.002800 0.004300
f 26/65/26 22/66/22 24/67/24
vt 0.486200 0.004300
f 26/65/26 24/67/24 28/68/28
vt 0.639800 0.537200
f 29/69/29 25/57/25 26/58/26
vt 0.657000 0.513800
f 29/69/29 26/58/26 30/70/30
vt 0.360200 0.004300
vt 0.492400 0.004300
vt 0.492400 0.995700
f 31/71/31 27/72/27 25/73/25
vt 0.360200 0.995700
f 31/71/31 25/73/25 29/74/29
vt 0.343000 0.513800
f 32/75/32 28/63/28 27/64/27
vt 0.360200 0.537200
f 32/75/32 27/64/27 31/76/31
vt 0.657000 0.995700
vt 0.490500 0.995700
vt 0.490500 0.004300
f 30/77/30 26/78/26 28/79/28
vt 0.657000 0.004300
f 30/77/30 28/79/28 32/80/32
vt 0.639800 0.605800
f 33/81/33 29/69/29 30/70/30
vt 0.657000 0.582500
f 33/81/33 30/70/30 34/82/34
vt 0.394200 0.004400
vt 0.462800 0.004300
vt 0.462800 0.995700
f 35/83/35 31/84/31 29/85/29
vt 0.394200 0.995800
f 35/83/35 29/85/29 33/86/33
vt 0.343000 0.582500
f 36/87/36 32/75/32 31/76/31
vt 0.360200 0.605800
f 36/87/36 31/76/31 35/88/35
vt 0.582500 0.995600
vt 0.513800 0.995700
vt 0.513800 0.004300
f 34/89/34 30/90/30 32/91/32
vt 0.582500 0.004200
f 34/89/34 32/91/32 36/92/36
vt 0.736000 0.605800
f 37/93/37 33/81/33 34/82/34
vt 0.753100 0.582500
f 37/93/37 34/82/34 38/94/38
vt 0.264100 0.004600
vt 0.360200 0.004400
vt 0.360200 0.995800
f 39/95/39 35/96/35 33/97/33
vt 0.264000 0.995900
f 39/95/39 33/97/33 37/98/37
vt 0.246900 0.582500
f 40/99/40 36/87/36 35/88/35
vt 0.264100 0.605800
f 40/99/40 35/88/35 39/100/39
vt 0.753100 0.995400
vt 0.657000 0.995600
vt 0.657000 0.004200
f 38/101/38 34/102/34 36/103/36
vt 0.753100 0.004100
f 38/101/38 36/103/36 40/104/40
vt 0.736000 0.739200
f 41/105/41 37/93/37 38/94/38
vt 0.753100 0.715900
f 41/105/41 38/94/38 42/106/42
vt 0.260800 0.004700
vt 0.394200 0.004600
vt 0.394200 0.995900
f 43/107/43 39/108/39 37/109/37
vt 0.260800 0.996000
f 43/107/43 37/109/37 41/110/41
vt 0.246900 0.715900
f 44/111/44 40/99/40 39/100/39
vt 0.264100 0.739200
f 44/111/44 39/100/39 43/112/43
vt 0.715900 0.995300
vt 0.582500 0.995400
vt 0.582500 0.004100
f 42/113/42 38/114/38 40/115/40
vt 0.715900 0.004000
f 42/113/42 40/115/40 44/116/44
vt 0.881500 0.739200
f 45/117/45 41/105/41 42/106/42
vt 0.898700 0.715900
f 45/117/45 42/106/42 46/118/46
vt 0.118500 0.004800
vt 0.264100 0.004700
vt 0.264000 0.996000
f 47/119/47 43/120/43 41/121/41
vt 0.118500 0.996200
f 47/119/47 41/121/41 45/122/45
vt 0.101300 0.715900
f 48/123/48 44/111/44 43/112/43
vt 0.118500 0.739200
f 48/123/48 43/112/43 47/124/47
vt 0.898700 0.995200
vt 0.753100 0.995300
vt 0.753100 0.004000
f 46/125/46 42/126/42 44/127/44
vt 0.898700 0.003800
f 46/125/46 44/127/44 48/128/48
vt 0.881600 0.774300
f 49/129/49 45/117/45 46/118/46
vt 0.898700 0.797700
f 49/129/49 46/118/46 50/130/50
vt 0.225700 0.004800
vt 0.260800 0.004800
vt 0.260800 0.996200
f 51/131/51 47/132/47 45/133/45
vt 0.225700 0.996200
f 51/131/51 45/133/45 49/134/49
vt 0.101300 0.797700
f 52/135/52 48/123/48 47/124/47
vt 0.118500 0.774300
f 52/135/52 47/124/47 51/136/51
vt 0.797700 0.995200
vt 0.715900 0.995200
vt 0.715900 0.003800
f 50/137/50 46/138/46 48/139/48
vt 0.797700 0.003800
f 50/137/50 48/139/48 52/140/52
vt 0.558000 0.774300
f 53/141/53 49/129/49 50/130/50
vt 0.540900 0.797700
f 53/141/53 50/130/50 54/142/54
vt 0.558000 0.004800
vt 0.881500 0.004800
vt 0.881600 0.996200
f 55/143/55 51/144/51 49/145/49
vt 0.558000 0.996200
f 55/143/55 49/145/49 53/146/53
vt 0.459100 0.797700
f 56/147/56 52/135/52 51/136/51
vt 0.442000 0.774300
f 56/147/56 51/136/51 55/148/55
vt 0.459100 0.995200
vt 0.101300 0.995200
vt 0.101300 0.003800
f 54/149/54 50/150/50 52/151/52
vt 0.459100 0.003800
f 54/149/54 52/151/52 56/152/56
vt 0.558000 0.737900
f 57/153/57 53/141/53 54/142/54
vt 0.540900 0.714600
f 57/153/57 54/142/54 58/154/58
vt 0.738000 0.004800
vt 0.774300 0.004800
vt 0.774300 0.996200
f 59/155/59 55/156/55 53/157/53
vt 0.737900 0.996200
f 59/155/59 53/157/53 57/158/57
vt 0.459100 0.714600
f 60/159/60 56/147/56 55/148/55
vt 0.442000 0.738000
f 60/159/60 55/148/55 59/160/59
vt 0.285400 0.995200
vt 0.202300 0.995200
vt 0.202300 0.003800
f 58/161/58 54/162/54 56/163/56
vt 0.285400 0.003800
f 58/161/58 56/163/56 60/164/60
vt 0.608300 0.737900
f 61/165/61 57/153/57 58/154/58
vt 0.608300 0.714600
f 61/165/61 58/154/58 62/166/62
vt 0.391700 0.004800
vt 0.442000 0.004800
vt 0.442000 0.996200
f 63/167/63 59/168/59 57/169/57
vt 0.391700 0.996200
f 63/167/63 57/169/57 61/170/61
vt 0.391700 0.714600
f 64/171/64 60/159/60 59/160/59
vt 0.391700 0.738000
f 64/171/64 59/160/59 63/172/63
vt 0.608300 0.995200
vt 0.540900 0.995200
vt 0.540900 0.003800
f 62/173/62 58/174/58 60/175/60
vt 0.608300 0.003800
f 62/173/62 60/175/60 64/176/64
vt 0.998400 0.004300
vt 0.998400 0.995700
f 6/20/6 8/177/8 3/178/3
f 6/20/6 3/178/3 2/21/2
vt 0.714600 0.995200
f 63/155/63 61/158/61 62/179/62
vt 0.714600 0.003800
f 64/180/64 63/155/63 62/179/62
# 124 faces, 180 coords texture

# End of File
