####
#
# OBJ File Generated by Meshlab
#
####
# Object maze2_7.obj
#
# Vertices: 8
# Faces: 8
#
####
mtllib ./maze2_7.obj.mtl

g maze7

vn 0.000000 0.832050 -0.554700
v 11.269100 13.462200 0.124600
vn 0.000000 0.447214 0.894427
v 7.026500 13.462200 4.367200
vn 0.000000 -0.832050 -0.554700
v 11.269100 0.270900 0.124600
vn 0.000000 -0.447214 0.894427
v 7.026500 0.270900 4.367200
vn 0.000000 0.832050 -0.554700
v 43.978001 13.462200 0.124600
vn 0.000000 0.447214 0.894427
v 48.220600 13.462200 4.367200
vn 0.000000 -0.832050 -0.554700
v 43.978001 0.270900 0.124600
vn 0.000000 -0.447214 0.894427
v 48.220600 0.270900 4.367200
# 8 vertices, 0 vertices normals


usemtl material_0
vt 0.639800 0.537200
vt 0.507600 0.537200
vt 0.490500 0.513800
f 5/1/5 1/2/1 2/3/2
vt 0.657000 0.513800
f 5/1/5 2/3/2 6/4/6
vt 0.360200 0.004300
vt 0.492400 0.004300
vt 0.492400 0.995700
f 7/5/7 3/6/3 1/7/1
vt 0.360200 0.995700
f 7/5/7 1/7/1 5/8/5
vt 0.343000 0.513800
vt 0.509500 0.513800
vt 0.492400 0.537200
f 8/9/8 4/10/4 3/11/3
vt 0.360200 0.537200
f 8/9/8 3/11/3 7/12/7
vt 0.657000 0.995700
vt 0.490500 0.995700
vt 0.490500 0.004300
f 6/13/6 2/14/2 4/15/4
vt 0.657000 0.004300
f 6/13/6 4/15/4 8/16/8
# 8 faces, 16 coords texture

# End of File
