####
#
# OBJ File Generated by Meshlab
#
####
# Object maze13_1.obj
#
# Vertices: 8
# Faces: 8
#
####
mtllib ./maze13_1.obj.mtl

vn 0.554378 0.832262 -0.002157
v -35.604801 13.462200 -20.575001
vn -0.894864 0.446325 0.003483
v -39.863998 13.462200 -24.817699
vn 0.554378 -0.832262 -0.002157
v -35.604801 0.270900 -20.575001
vn -0.894865 -0.446324 0.003483
v -39.863998 0.270900 -24.817699
vn 0.555013 0.831839 -0.002159
v -35.390400 13.462200 34.535702
vn -0.893978 0.448098 0.003479
v -39.616501 13.462200 38.778301
vn 0.555013 -0.831839 -0.002159
v -35.390400 0.270900 34.535702
vn -0.893977 -0.448099 0.003479
v -39.616501 0.270900 38.778301
# 8 vertices, 0 vertices normals


usemtl material_0
vt 0.319100 0.347900
vt 0.318200 0.651100
vt 0.301000 0.674400
f 5/1/5 1/2/1 2/3/2
vt 0.302000 0.324500
f 5/1/5 2/3/2 6/4/6
vt 0.347900 0.004300
vt 0.651100 0.004300
vt 0.651100 0.995700
f 7/5/7 3/6/3 1/7/1
vt 0.347900 0.995700
f 7/5/7 1/7/1 5/8/5
vt 0.698000 0.324500
vt 0.699000 0.674400
vt 0.681800 0.651100
f 8/9/8 4/10/4 3/11/3
vt 0.680900 0.347900
f 8/9/8 3/11/3 7/12/7
vt 0.675500 0.995700
vt 0.325600 0.995700
vt 0.325600 0.004300
f 6/13/6 2/14/2 4/15/4
vt 0.675500 0.004300
f 6/13/6 4/15/4 8/16/8
# 8 faces, 16 coords texture

# End of File
