####
#
# OBJ File Generated by Meshlab
#
####
# Object maze30.obj
#
# Vertices: 8
# Faces: 10
#
####
mtllib ./maze30.obj.mtl

vn -0.577350 0.577350 -0.577350
v 79.774803 13.462200 -24.586700
vn -0.577350 0.577350 0.577350
v 79.774803 13.462200 -0.525500
vn 0.577350 0.577350 0.577350
v 84.017403 13.462200 -0.525500
vn 0.301511 0.904534 0.301511
v 84.017403 13.462200 -20.344101
vn -0.577350 -0.577350 -0.577350
v 79.774803 0.270900 -24.586700
vn -0.577350 -0.577350 0.577350
v 79.774803 0.270900 -0.525500
vn 0.301511 -0.904534 0.301511
v 84.017403 0.270900 -20.344101
vn 0.577350 -0.577350 0.577350
v 84.017403 0.270900 -0.525500
# 8 vertices, 0 vertices normals


usemtl material_0
vt 0.784500 0.673100
vt 0.784500 0.540800
vt 0.801600 0.540800
f 1/1/1 2/2/2 3/3/3
vt 0.801600 0.649800
f 1/1/1 3/3/3 4/4/4
vt 0.326900 0.004300
vt 0.459200 0.004300
vt 0.459200 0.995700
f 5/5/5 6/6/6 2/7/2
vt 0.326900 0.995700
f 5/5/5 2/7/2 1/8/1
vt 0.198400 0.649800
vt 0.198400 0.540800
vt 0.215500 0.540800
f 7/9/7 8/10/8 6/11/6
vt 0.215500 0.673100
f 7/9/7 6/11/6 5/12/5
vt 0.649800 0.995700
vt 0.540800 0.995700
vt 0.540800 0.004300
f 4/13/4 3/14/3 8/15/8
vt 0.649800 0.004300
f 4/13/4 8/15/8 7/16/7
vt 0.784500 0.004300
vt 0.801600 0.004300
vt 0.801600 0.995700
f 6/17/6 8/18/8 3/19/3
vt 0.784500 0.995700
f 6/17/6 3/19/3 2/20/2
# 10 faces, 20 coords texture

# End of File
