####
#
# OBJ File Generated by Meshlab
#
####
# Object maze15_1.obj
#
# Vertices: 8
# Faces: 10
#
####
mtllib ./maze15_1.obj.mtl

g maze56

vn -0.003795 0.832421 -0.554130
v -36.075001 13.462200 -47.695999
vn 0.006132 0.445654 0.895185
v -40.317600 13.462200 -43.424198
vn -0.003795 -0.832421 -0.554130
v -36.075001 0.270900 -47.695999
vn 0.006132 -0.445654 0.895185
v -40.317600 0.270900 -43.424198
vn 0.573379 0.577351 -0.581294
v -4.492600 13.462200 -47.912300
vn 0.581294 0.577350 0.573380
v -4.463500 13.462200 -43.669800
vn 0.573379 -0.577351 -0.581294
v -4.492600 0.270900 -47.912300
vn 0.581294 -0.577350 0.573380
v -4.463500 0.270900 -43.669800
# 8 vertices, 0 vertices normals


usemtl material_0
vt 0.443900 0.801500
vt 0.316300 0.800300
vt 0.299200 0.776800
f 5/1/5 1/2/1 2/3/2
vt 0.444100 0.778100
f 5/1/5 2/3/2 6/4/6
vt 0.556100 0.004300
vt 0.683700 0.004300
vt 0.683700 0.995700
f 7/5/7 3/6/3 1/7/1
vt 0.556100 0.995700
f 7/5/7 1/7/1 5/8/5
vt 0.555900 0.778100
vt 0.700800 0.776800
vt 0.683700 0.800300
f 8/9/8 4/10/4 3/11/3
vt 0.556100 0.801500
f 8/9/8 3/11/3 7/12/7
vt 0.444100 0.995700
vt 0.299200 0.995700
vt 0.299200 0.004300
f 6/13/6 2/14/2 4/15/4
vt 0.444100 0.004300
f 6/13/6 4/15/4 8/16/8
vt 0.801500 0.004300
vt 0.801500 0.995700
vt 0.778100 0.995700
f 7/17/7 5/18/5 6/19/6
vt 0.778100 0.004300
f 8/20/8 7/17/7 6/19/6
# 10 faces, 20 coords texture

# End of File
