####
#
# OBJ File Generated by Meshlab
#
####
# Object maze38.obj
#
# Vertices: 8
# Faces: 12
#
####
mtllib ./maze38.obj.mtl

g maze103

vn 1.570796 1.570796 1.570796
v 71.546303 13.462200 81.691597
vn 1.570796 1.570796 -1.570796
v 71.546303 13.462200 69.220497
vn -1.570796 1.570796 -1.570796
v 67.303596 13.462200 69.220497
vn -1.570796 1.570796 1.570796
v 67.303596 13.462200 81.691597
vn 1.570796 -1.570796 1.570796
v 71.546303 0.270900 81.691597
vn 1.570796 -1.570796 -1.570796
v 71.546303 0.270900 69.220497
vn -1.570796 -1.570796 1.570796
v 67.303596 0.270900 81.691597
vn -1.570796 -1.570796 -1.570796
v 67.303596 0.270900 69.220497
# 8 vertices, 0 vertices normals


usemtl material_0
vt 0.751200 0.088400
vt 0.751200 0.157000
vt 0.734100 0.157000
f 1/1/1 2/2/2 3/3/3
vt 0.734100 0.088400
f 1/1/1 3/3/3 4/4/4
vt 0.088400 0.004300
vt 0.157000 0.004300
vt 0.157000 0.995700
f 5/5/5 6/6/6 2/7/2
vt 0.088400 0.995700
f 5/5/5 2/7/2 1/8/1
vt 0.265900 0.088400
vt 0.265900 0.157000
vt 0.248800 0.157000
f 7/9/7 8/10/8 6/11/6
vt 0.248800 0.088400
f 7/9/7 6/11/6 5/12/5
vt 0.911600 0.995700
vt 0.843000 0.995700
vt 0.843000 0.004300
f 4/13/4 3/14/3 8/15/8
vt 0.911600 0.004300
f 4/13/4 8/15/8 7/16/7
vt 0.248800 0.004300
vt 0.265900 0.004300
vt 0.265900 0.995700
f 6/17/6 8/18/8 3/19/3
vt 0.248800 0.995700
f 6/17/6 3/19/3 2/20/2
vt 0.751200 0.004300
vt 0.751200 0.995700
vt 0.734100 0.995700
f 5/21/5 1/22/1 4/23/4
vt 0.734100 0.004300
f 7/24/7 5/21/5 4/23/4
# 12 faces, 24 coords texture

# End of File
