####
#
# OBJ File Generated by Meshlab
#
####
# Object maze32_1.obj
#
# Vertices: 8
# Faces: 10
#
####
mtllib ./maze32_1.obj.mtl

g maze86

vn -0.009462 0.774444 1.570768
v 71.811401 13.462200 26.782101
vn 0.009463 2.367149 -1.570768
v 67.500397 13.462200 22.513399
vn -0.009462 -0.774444 1.570768
v 71.811401 0.270900 26.782101
vn 0.009463 -2.367150 -1.570768
v 67.500397 0.270900 22.513399
vn -1.580230 1.570810 1.561327
v 31.306000 13.462200 26.538099
vn -1.561305 1.570782 -1.580208
v 31.331499 13.462200 22.295500
vn -1.580230 -1.570810 1.561327
v 31.306000 0.270900 26.538099
vn -1.561305 -1.570782 -1.580209
v 31.331499 0.270900 22.295500
# 8 vertices, 0 vertices normals


usemtl material_0
vt 0.588600 0.391900
vt 0.752300 0.390500
vt 0.734900 0.414000
f 5/1/5 1/2/1 2/3/2
vt 0.588700 0.415200
f 5/1/5 2/3/2 6/4/6
vt 0.588600 0.004300
vt 0.752300 0.004300
vt 0.752300 0.995700
f 7/5/7 3/6/3 1/7/1
vt 0.588600 0.995700
f 7/5/7 1/7/1 5/8/5
vt 0.411300 0.415200
vt 0.265100 0.414000
vt 0.247700 0.390500
f 8/9/8 4/10/4 3/11/3
vt 0.411400 0.391900
f 8/9/8 3/11/3 7/12/7
vt 0.411300 0.995700
vt 0.265100 0.995700
vt 0.265100 0.004300
f 6/13/6 2/14/2 4/15/4
vt 0.411300 0.004300
f 6/13/6 4/15/4 8/16/8
vt 0.608100 0.004300
vt 0.608100 0.995700
vt 0.584800 0.995700
f 7/17/7 5/18/5 6/19/6
vt 0.584800 0.004300
f 8/20/8 7/17/7 6/19/6
# 10 faces, 20 coords texture

# End of File
