####
#
# OBJ File Generated by Meshlab
#
####
# Object maze36_2.obj
#
# Vertices: 8
# Faces: 8
#
####
mtllib ./maze36_2.obj.mtl

g maze97

vn -0.018682 0.437869 0.898844
v 59.118900 13.462200 73.696899
vn 0.011517 0.834254 -0.551261
v 54.788799 13.462200 69.363098
vn -0.018682 -0.437870 0.898844
v 59.118900 0.270900 73.696899
vn 0.011517 -0.834254 -0.551261
v 54.788799 0.270900 69.363098
vn -0.011458 0.834236 0.551288
v 48.033798 13.462200 73.466499
vn 0.018778 0.437847 -0.898854
v 43.702999 13.462200 69.131500
vn -0.011458 -0.834236 0.551288
v 48.033798 0.270900 73.466499
vn 0.018778 -0.437847 -0.898853
v 43.702999 0.270900 69.131500
# 8 vertices, 0 vertices normals


usemtl material_0
vt 0.656200 0.133700
vt 0.701000 0.132400
vt 0.683500 0.156200
f 5/1/5 1/2/1 2/3/2
vt 0.638700 0.157500
f 5/1/5 2/3/2 6/4/6
vt 0.656200 0.004300
vt 0.701000 0.004300
vt 0.701000 0.995700
f 7/5/7 3/6/3 1/7/1
vt 0.656200 0.995700
f 7/5/7 1/7/1 5/8/5
vt 0.361300 0.157500
vt 0.316500 0.156200
vt 0.299000 0.132400
f 8/9/8 4/10/4 3/11/3
vt 0.343800 0.133700
f 8/9/8 3/11/3 7/12/7
vt 0.361300 0.995700
vt 0.316500 0.995700
vt 0.316500 0.004300
f 6/13/6 2/14/2 4/15/4
vt 0.361300 0.004300
f 6/13/6 4/15/4 8/16/8
# 8 faces, 16 coords texture

# End of File
