####
#
# OBJ File Generated by Meshlab
#
####
# Object maze11_2.obj
#
# Vertices: 8
# Faces: 8
#
####
mtllib ./maze11_2.obj.mtl

vn 0.000000 0.447214 -0.894427
v -52.557800 13.462200 -36.596001
vn 0.000000 0.832050 0.554700
v -48.315102 13.462200 -32.353298
vn 0.000000 -0.447214 -0.894427
v -52.557800 0.270900 -36.596001
vn 0.000000 -0.832050 0.554700
v -48.315102 0.270900 -32.353298
vn 0.000000 0.448106 -0.893981
v -12.757600 13.462200 -36.596001
vn 0.000000 0.831837 0.555020
v -16.983700 13.462200 -32.353298
vn 0.000000 -0.448106 -0.893980
v -12.757600 0.270900 -36.596001
vn 0.000000 -0.831837 0.555020
v -16.983700 0.270900 -32.353298
# 8 vertices, 0 vertices normals


usemtl material_0
vt 0.410500 0.739200
vt 0.249700 0.739200
vt 0.266800 0.715900
f 5/1/5 1/2/1 2/3/2
vt 0.393500 0.715900
f 5/1/5 2/3/2 6/4/6
vt 0.589500 0.004300
vt 0.750300 0.004300
vt 0.750300 0.995700
f 7/5/7 3/6/3 1/7/1
vt 0.589500 0.995700
f 7/5/7 1/7/1 5/8/5
vt 0.606500 0.715900
vt 0.733200 0.715900
vt 0.750300 0.739200
f 8/9/8 4/10/4 3/11/3
vt 0.589500 0.739200
f 8/9/8 3/11/3 7/12/7
vt 0.393500 0.995700
vt 0.266800 0.995700
vt 0.266800 0.004300
f 6/13/6 2/14/2 4/15/4
vt 0.393500 0.004300
f 6/13/6 4/15/4 8/16/8
# 8 faces, 16 coords texture

# End of File
