####
#
# OBJ File Generated by Meshlab
#
####
# Object maze9_2.obj
#
# Vertices: 8
# Faces: 8
#
####
mtllib ./maze9_2.obj.mtl

vn 1.570796 0.785398 0.000000
v -24.989500 13.462200 57.861301
vn -1.570796 2.356194 0.000000
v -29.232100 13.462200 62.103901
vn 1.570796 -0.785398 0.000000
v -24.989500 0.270900 57.861301
vn -1.570796 -2.356194 0.000000
v -29.232100 0.270900 62.103901
vn 1.570796 2.364006 0.000000
v -24.989500 13.462200 70.068100
vn -1.570796 0.777587 0.000000
v -29.232100 13.462200 74.377502
vn 1.570796 -2.364006 0.000000
v -24.989500 0.270900 70.068100
vn -1.570796 -0.777587 0.000000
v -29.232100 0.270900 74.377502
# 8 vertices, 0 vertices normals


usemtl material_0
vt 0.361100 0.152400
vt 0.361100 0.219500
vt 0.344000 0.196200
f 5/1/5 1/2/1 2/3/2
vt 0.344000 0.128700
f 5/1/5 2/3/2 6/4/6
vt 0.152400 0.004300
vt 0.219500 0.004300
vt 0.219500 0.995700
f 7/5/7 3/6/3 1/7/1
vt 0.152400 0.995700
f 7/5/7 1/7/1 5/8/5
vt 0.656000 0.128700
vt 0.656000 0.196200
vt 0.638900 0.219500
f 8/9/8 4/10/4 3/11/3
vt 0.638900 0.152400
f 8/9/8 3/11/3 7/12/7
vt 0.871300 0.995700
vt 0.803800 0.995700
vt 0.803800 0.004300
f 6/13/6 2/14/2 4/15/4
vt 0.871300 0.004300
f 6/13/6 4/15/4 8/16/8
# 8 faces, 16 coords texture

# End of File
