####
#
# OBJ File Generated by Meshlab
#
####
# Object maze35.obj
#
# Vertices: 8
# Faces: 12
#
####
mtllib ./maze35.obj.mtl

g maze95

vn 1.575241 1.570804 -1.566350
v 129.477097 13.462200 46.775902
vn -1.566339 1.570791 -1.575234
v 47.952900 13.462200 46.544899
vn -1.575241 1.570802 1.566347
v 47.940899 13.462200 50.787498
vn 1.566339 1.570790 1.575231
v 129.465103 13.462200 51.018501
vn 1.575241 -1.570803 -1.566350
v 129.477097 0.270900 46.775902
vn -1.566339 -1.570792 -1.575233
v 47.952900 0.270900 46.544899
vn 1.566339 -1.570790 1.575230
v 129.465103 0.270900 51.018501
vn -1.575241 -1.570801 1.566347
v 47.940899 0.270900 50.787498
# 8 vertices, 0 vertices normals


usemtl material_0
vt 0.985300 0.280500
vt 0.655900 0.281800
vt 0.655800 0.258400
f 1/1/1 2/2/2 3/3/3
vt 0.985300 0.257200
f 1/1/1 3/3/3 4/4/4
vt 0.014700 0.004300
vt 0.344100 0.004300
vt 0.344100 0.995700
f 5/5/5 6/6/6 2/7/2
vt 0.014700 0.995700
f 5/5/5 2/7/2 1/8/1
vt 0.014700 0.257200
vt 0.344200 0.258400
vt 0.344100 0.281800
f 7/9/7 8/10/8 6/11/6
vt 0.014700 0.280500
f 7/9/7 6/11/6 5/12/5
vt 0.985300 0.995700
vt 0.655800 0.995700
vt 0.655800 0.004300
f 4/13/4 3/14/3 8/15/8
vt 0.985300 0.004300
f 4/13/4 8/15/8 7/16/7
vt 0.718200 0.004300
vt 0.741600 0.004300
vt 0.741600 0.995700
f 6/17/6 8/18/8 3/19/3
vt 0.718200 0.995700
f 6/17/6 3/19/3 2/20/2
vt 0.280500 0.004300
vt 0.280500 0.995700
vt 0.257200 0.995700
f 5/21/5 1/22/1 4/23/4
vt 0.257200 0.004300
f 7/24/7 5/21/5 4/23/4
# 12 faces, 24 coords texture

# End of File
