####
#
# OBJ File Generated by Meshlab
#
####
# Object maze34_2.obj
#
# Vertices: 8
# Faces: 8
#
####
mtllib ./maze34_2.obj.mtl

g maze93

vn 0.000012 0.781942 1.570796
v 48.466400 13.462200 61.873001
vn 0.000012 2.359667 -1.570796
v 44.194199 13.462200 57.630299
vn 0.000012 -0.781942 1.570796
v 48.466400 0.270900 61.873001
vn 0.000012 -2.359667 -1.570796
v 44.194199 0.270900 57.630299
vn 0.000012 2.360551 1.570796
v 35.999199 13.462200 61.873100
vn 0.000012 0.781026 -1.570796
v 31.719101 13.462200 57.630199
vn 0.000012 -2.360551 1.570796
v 35.999199 0.270900 61.873100
vn 0.000012 -0.781026 -1.570796
v 31.719101 0.270900 57.630199
# 8 vertices, 0 vertices normals


usemtl material_0
vt 0.607600 0.197500
vt 0.658000 0.197500
vt 0.640700 0.220800
f 5/1/5 1/2/1 2/3/2
vt 0.590300 0.220800
f 5/1/5 2/3/2 6/4/6
vt 0.607600 0.004300
vt 0.658000 0.004300
vt 0.658000 0.995700
f 7/5/7 3/6/3 1/7/1
vt 0.607600 0.995700
f 7/5/7 1/7/1 5/8/5
vt 0.409700 0.220800
vt 0.359300 0.220800
vt 0.342000 0.197500
f 8/9/8 4/10/4 3/11/3
vt 0.392400 0.197500
f 8/9/8 3/11/3 7/12/7
vt 0.409700 0.995700
vt 0.359300 0.995700
vt 0.359300 0.004300
f 6/13/6 2/14/2 4/15/4
vt 0.409700 0.004300
f 6/13/6 4/15/4 8/16/8
# 8 faces, 16 coords texture

# End of File
