####
#
# OBJ File Generated by Meshlab
#
####
# Object maze4.obj
#
# Vertices: 56
# Faces: 108
#
####
mtllib ./maze4.obj.mtl

vn -1.570796 4.712389 1.570796
v -64.797997 13.462200 -66.533501
vn -1.570796 1.570796 1.570796
v -64.797997 13.462200 -54.798000
vn 1.570796 1.570796 1.570796
v -60.555302 13.462200 -54.798000
vn 1.570796 1.570796 -1.570796
v -60.555302 13.462200 -70.776100
vn -1.570796 -4.712389 1.570796
v -64.797997 0.270900 -66.533501
vn -1.570796 -1.570796 1.570796
v -64.797997 0.270900 -54.798000
vn 1.570796 -1.570796 -1.570796
v -60.555302 0.270900 -70.776100
vn 1.570796 -1.570796 1.570796
v -60.555302 0.270900 -54.798000
vn 1.570642 4.712387 1.570907
v -72.795502 13.462200 -66.533501
vn -1.570787 1.570794 -1.570765
v -77.038101 13.462200 -70.776100
vn 1.570642 -4.712387 1.570897
v -72.795502 0.270900 -66.533501
vn -1.570786 -1.570794 -1.570759
v -77.038101 0.270900 -70.776100
vn 1.571139 1.570500 1.571303
v -72.795303 13.460600 -31.890499
vn -1.569023 4.712558 -1.568694
v -77.038002 13.463800 -36.133202
vn 1.570178 -1.570967 1.570162
v -72.795601 0.269300 -31.892300
vn -1.572864 -4.712092 -1.572262
v -77.038300 0.272500 -36.134998
vn 1.574452 4.711828 1.574285
v -85.035400 13.459000 -31.889700
vn -1.569763 1.571243 -1.569579
v -89.278000 13.465400 -36.132301
vn 1.566849 -4.712829 1.566951
v -85.036003 0.267700 -31.893200
vn -1.571547 -1.570240 -1.571816
v -89.278603 0.274100 -36.135799
vn 1.572143 1.570034 1.572442
v -85.035202 13.457400 -19.879499
vn -1.564616 4.713101 -1.565716
v -89.277901 13.467000 -24.122200
vn 1.569380 -1.571514 1.568977
v -85.036102 0.266100 -19.884800
vn -1.576105 -4.711620 -1.576403
v -89.278801 0.275700 -24.127501
vn 1.576536 4.713783 1.572792
v -97.270798 13.457400 -19.879499
vn -1.569420 1.569336 -1.565639
v -101.522697 13.467000 -24.122200
vn 1.565043 -4.715283 1.562018
v -97.271698 0.266100 -19.884899
vn -1.572165 -1.567859 -1.569051
v -101.523598 0.275700 -24.127501
vn 1.573219 4.711320 -1.579996
v -97.046898 13.457400 81.875298
vn -1.566071 1.571776 1.572810
v -101.280296 13.467000 86.125999
vn 1.562448 -4.712794 -1.568499
v -97.052200 0.266100 81.876198
vn -1.569490 -1.570298 1.575563
v -101.285599 0.275700 86.126900
vn -1.579554 4.709716 -1.576194
v 20.190001 13.457400 81.650200
vn 1.572378 1.573414 1.569077
v 24.432699 13.467000 85.884804
vn -1.568067 -4.711191 -1.565401
v 20.190901 0.266100 81.655502
vn 1.575136 -1.571939 1.572501
v 24.433599 0.275700 85.890099
vn -1.572178 1.570061 -1.572509
v 20.190100 13.457400 46.542198
vn 1.565063 4.713115 1.565392
v 24.432600 13.467000 50.785000
vn -1.569421 -1.571537 -1.569092
v 20.191000 0.266100 46.547501
vn 1.576530 -4.711639 1.576191
v 24.433500 0.275700 50.790298
vn -1.575333 4.751565 -1.513039
v 32.112701 13.457400 46.542099
vn 1.568207 1.531413 1.506211
v 36.528301 13.467000 50.785000
vn -1.563781 -4.752820 -1.503217
v 32.113800 0.266100 46.547501
vn 1.570868 -1.530011 1.509612
v 36.529301 0.275700 50.790298
vn -1.574855 4.671340 1.639975
v 31.818300 13.457400 39.240601
vn 1.567774 1.611397 -1.632034
v 35.894798 13.467000 34.998100
vn -1.564190 -4.673070 1.627554
v 31.823500 0.266100 39.239601
vn 1.571319 -1.609889 -1.634835
v 35.900002 0.275700 34.997200
vn -1.572505 1.570090 1.572191
v 19.494900 13.457400 39.240601
vn 1.565396 4.713163 -1.564985
v 23.737700 13.467000 34.998100
vn -1.569081 -1.571573 1.569485
v 19.500200 0.266100 39.239700
vn 1.576195 -4.711673 -1.576516
v 23.743000 0.275700 34.997200
vn -1.574078 1.570079 -1.572901
v 19.496099 13.457400 14.946400
vn 1.567045 1.570863 -1.568799
v 23.738701 13.467000 14.946500
vn -1.567439 -1.571548 -1.568801
v 19.499201 0.266100 14.949500
vn 1.574624 -1.570877 -1.572918
v 23.741800 0.275700 14.949600
# 56 vertices, 0 vertices normals


usemtl material_0
vt 0.200200 0.903900
vt 0.200200 0.839400
vt 0.217400 0.839400
f 1/1/1 2/2/2 3/3/3
vt 0.217400 0.927300
f 1/1/1 3/3/3 4/4/4
vt 0.096100 0.004300
vt 0.160600 0.004300
vt 0.160600 0.995700
f 5/5/5 6/6/6 2/7/2
vt 0.096100 0.995700
f 5/5/5 2/7/2 1/8/1
vt 0.782600 0.927300
vt 0.782600 0.839400
vt 0.799800 0.839400
f 7/9/7 8/10/8 6/11/6
vt 0.799800 0.903900
f 7/9/7 6/11/6 5/12/5
vt 0.927300 0.995700
vt 0.839400 0.995700
vt 0.839400 0.004300
f 4/13/4 3/14/3 8/15/8
vt 0.927300 0.004300
f 4/13/4 8/15/8 7/16/7
vt 0.167900 0.903900
f 9/17/9 1/1/1 4/4/4
vt 0.150800 0.927300
f 9/17/9 4/4/4 10/18/10
vt 0.167900 0.004300
vt 0.200200 0.004300
vt 0.200200 0.995700
f 11/19/11 5/20/5 1/21/1
vt 0.167900 0.995700
f 11/19/11 1/21/1 9/22/9
vt 0.849200 0.927300
f 12/23/12 7/9/7 5/12/5
vt 0.832100 0.903900
f 12/23/12 5/12/5 11/24/11
vt 0.849200 0.995700
vt 0.782600 0.995700
vt 0.782600 0.004300
f 10/25/10 4/26/4 7/27/7
vt 0.849200 0.004300
f 10/25/10 7/27/7 12/28/12
vt 0.167900 0.713300
f 13/29/13 9/17/9 10/18/10
vt 0.150800 0.736700
f 13/29/13 10/18/10 14/30/14
vt 0.713300 0.004200
vt 0.903900 0.004300
vt 0.903900 0.995700
f 15/31/15 11/32/11 9/33/9
vt 0.713300 0.995600
f 15/31/15 9/33/9 13/34/13
vt 0.849200 0.736700
f 16/35/16 12/23/12 11/24/11
vt 0.832100 0.713300
f 16/35/16 11/24/11 15/36/15
vt 0.263300 0.995800
vt 0.072700 0.995700
vt 0.072700 0.004300
f 14/37/14 10/38/10 12/39/12
vt 0.263300 0.004400
f 14/37/14 12/39/12 16/40/16
vt 0.118400 0.713300
f 17/41/17 13/29/13 14/30/14
vt 0.101300 0.736700
f 17/41/17 14/30/14 18/42/18
vt 0.118400 0.004100
vt 0.167900 0.004200
vt 0.167900 0.995600
f 19/43/19 15/44/15 13/45/13
vt 0.118400 0.995400
f 19/43/19 13/45/13 17/46/17
vt 0.898700 0.736700
f 20/47/20 16/35/16 15/36/15
vt 0.881600 0.713300
f 20/47/20 15/36/15 19/48/19
vt 0.898700 0.995900
vt 0.849200 0.995800
vt 0.849200 0.004400
f 18/49/18 14/50/14 16/51/16
vt 0.898700 0.004600
f 18/49/18 16/51/16 20/52/20
vt 0.118400 0.647300
f 21/53/21 17/41/17 18/42/18
vt 0.101300 0.670600
f 21/53/21 18/42/18 22/54/22
vt 0.647300 0.004000
vt 0.713300 0.004100
vt 0.713300 0.995400
f 23/55/23 19/56/19 17/57/17
vt 0.647300 0.995300
f 23/55/23 17/57/17 21/58/21
vt 0.898700 0.670600
f 24/59/24 20/47/20 19/48/19
vt 0.881600 0.647300
f 24/59/24 19/48/19 23/60/23
vt 0.329400 0.996000
vt 0.263300 0.995900
vt 0.263300 0.004600
f 22/61/22 18/62/18 20/63/20
vt 0.329400 0.004700
f 22/61/22 20/63/20 24/64/24
vt 0.069000 0.647300
f 25/65/25 21/53/21 22/54/22
vt 0.051800 0.670600
f 25/65/25 22/54/22 26/66/26
vt 0.069000 0.004000
vt 0.118400 0.004000
vt 0.118400 0.995300
f 27/67/27 23/68/23 21/69/21
vt 0.069000 0.995300
f 27/67/27 21/69/21 25/70/25
vt 0.948200 0.670600
f 28/71/28 24/59/24 23/60/23
vt 0.931000 0.647300
f 28/71/28 23/60/23 27/72/27
vt 0.948200 0.996000
vt 0.898700 0.996000
vt 0.898700 0.004700
f 26/73/26 22/74/22 24/75/24
vt 0.948200 0.004700
f 26/73/26 24/75/24 28/76/28
vt 0.069900 0.087400
f 29/77/29 25/65/25 26/66/26
vt 0.052800 0.064000
f 29/77/29 26/66/26 30/78/30
vt 0.087400 0.004000
f 31/79/31 27/55/27 25/58/25
vt 0.087400 0.995300
f 31/79/31 25/58/25 29/80/29
vt 0.947200 0.064000
f 32/81/32 28/71/28 27/72/27
vt 0.930100 0.087400
f 32/81/32 27/72/27 31/82/31
vt 0.936000 0.996000
f 30/83/30 26/61/26 28/64/28
vt 0.936000 0.004700
f 30/83/30 28/64/28 32/84/32
vt 0.543700 0.088600
f 33/85/33 29/77/29 30/78/30
vt 0.560800 0.065300
f 33/85/33 30/78/30 34/86/34
vt 0.456300 0.004000
vt 0.930100 0.004000
vt 0.930100 0.995300
f 35/87/35 31/88/31 29/89/29
vt 0.456300 0.995300
f 35/87/35 29/89/29 33/90/33
vt 0.439200 0.065300
f 36/91/36 32/81/32 31/82/31
vt 0.456300 0.088600
f 36/91/36 31/82/31 35/92/35
vt 0.560800 0.996000
vt 0.052800 0.996000
vt 0.052800 0.004700
f 34/93/34 30/94/30 32/95/32
vt 0.560800 0.004700
f 34/93/34 32/95/32 36/96/36
vt 0.543700 0.281800
f 37/97/37 33/85/33 34/86/34
vt 0.560800 0.258500
f 37/97/37 34/86/34 38/98/38
vt 0.718200 0.004000
vt 0.911400 0.004000
vt 0.911400 0.995300
f 39/99/39 35/100/35 33/101/33
vt 0.718200 0.995300
f 39/99/39 33/101/33 37/102/37
vt 0.439200 0.258400
f 40/103/40 36/91/36 35/92/35
vt 0.456300 0.281800
f 40/103/40 35/92/35 39/104/39
vt 0.258500 0.996000
vt 0.065300 0.996000
vt 0.065300 0.004700
f 38/105/38 34/106/34 36/107/36
vt 0.258400 0.004700
f 38/105/38 36/107/36 40/108/40
vt 0.591900 0.281800
f 41/109/41 37/97/37 38/98/38
vt 0.609700 0.258500
f 41/109/41 38/98/38 42/110/42
vt 0.408100 0.004000
f 43/111/43 39/87/39 37/90/37
vt 0.408100 0.995300
f 43/111/43 37/90/37 41/112/41
vt 0.390300 0.258400
f 44/113/44 40/103/40 39/104/39
vt 0.408100 0.281800
f 44/113/44 39/104/39 43/114/43
vt 0.609700 0.996000
f 42/115/42 38/93/38 40/96/40
vt 0.609700 0.004700
f 42/115/42 40/96/40 44/116/44
vt 0.590700 0.322000
f 45/117/45 41/109/41 42/110/42
vt 0.607200 0.345300
f 45/117/45 42/110/42 46/118/46
vt 0.678000 0.004000
f 47/119/47 43/99/43 41/102/41
vt 0.678000 0.995300
f 47/119/47 41/102/41 45/120/45
vt 0.392800 0.345300
f 48/121/48 44/113/44 43/114/43
vt 0.409300 0.322000
f 48/121/48 43/114/43 47/122/47
vt 0.345300 0.996000
f 46/123/46 42/105/42 44/108/44
vt 0.345300 0.004700
f 46/123/46 44/108/44 48/124/48
vt 0.540900 0.322000
f 49/125/49 45/117/45 46/118/46
vt 0.558000 0.345300
f 49/125/49 46/118/46 50/126/50
vt 0.540900 0.004000
vt 0.590700 0.004000
vt 0.590700 0.995300
f 51/127/51 47/128/47 45/129/45
vt 0.540900 0.995300
f 51/127/51 45/129/45 49/130/49
vt 0.442000 0.345300
f 52/131/52 48/121/48 47/122/47
vt 0.459100 0.322000
f 52/131/52 47/122/47 51/132/51
vt 0.442000 0.996000
vt 0.392800 0.996000
vt 0.392800 0.004700
f 50/133/50 46/134/46 48/135/48
vt 0.442000 0.004700
f 50/133/50 48/135/48 52/136/52
vt 0.540900 0.455600
f 53/137/53 49/125/49 50/126/50
vt 0.558000 0.455600
f 53/137/53 50/126/50 54/138/54
vt 0.544400 0.004000
f 55/139/55 51/119/51 49/120/49
vt 0.544400 0.995300
f 55/139/55 49/120/49 53/140/53
vt 0.442000 0.455600
f 56/141/56 52/131/52 51/132/51
vt 0.459100 0.455600
f 56/141/56 51/132/51 55/142/55
vt 0.455600 0.996000
f 54/143/54 50/123/50 52/124/52
vt 0.455600 0.004700
f 54/143/54 52/124/52 56/144/56
vt 0.217400 0.004300
vt 0.217400 0.995700
f 6/20/6 8/145/8 3/146/3
f 6/20/6 3/146/3 2/21/2
vt 0.459100 0.004000
vt 0.459100 0.995300
f 55/147/55 53/148/53 54/133/54
f 56/136/56 55/147/55 54/133/54
# 108 faces, 148 coords texture

# End of File
