####
#
# OBJ File Generated by Meshlab
#
####
# Object maze15.obj
#
# Vertices: 16
# Faces: 28
#
####
mtllib ./maze15.obj.mtl

vn 1.584701 4.703532 1.570743
v -36.074902 13.462200 -67.475899
vn 1.584640 1.570809 1.556850
v -12.080500 13.462200 -67.688301
vn 1.556837 1.570788 -1.584619
v -12.118000 13.462200 -71.930702
vn -1.584694 1.579643 -1.570735
v -40.317600 13.462200 -71.681198
vn 1.584701 -4.703532 1.570743
v -36.074902 0.270900 -67.475899
vn 1.584639 -1.570809 1.556850
v -12.080500 0.270900 -67.688301
vn -1.584694 -1.579644 -1.570735
v -40.317600 0.270900 -71.681198
vn 1.556838 -1.570788 -1.584619
v -12.118000 0.270900 -71.930702
vn 1.560039 4.719243 -1.570752
v -36.075001 13.462200 -47.695999
vn -1.560037 1.563946 1.570760
v -40.317600 13.462200 -43.424198
vn 1.560038 -4.719243 -1.570752
v -36.075001 0.270900 -47.695999
vn -1.560037 -1.563946 1.570760
v -40.317600 0.270900 -43.424198
vn 1.560002 1.570807 -1.581534
v -4.492600 13.462200 -47.912300
vn 1.581519 1.570787 1.559986
v -4.463500 13.462200 -43.669800
vn 1.560002 -1.570807 -1.581534
v -4.492600 0.270900 -47.912300
vn 1.581519 -1.570787 1.559986
v -4.463500 0.270900 -43.669800
# 16 vertices, 0 vertices normals


usemtl material_0
vt 0.316300 0.909100
vt 0.413300 0.910300
vt 0.413100 0.933600
f 1/1/1 2/2/2 3/3/3
vt 0.299200 0.932300
f 1/1/1 3/3/3 4/4/4
vt 0.316300 0.004300
vt 0.413300 0.004300
vt 0.413300 0.995700
f 5/5/5 6/6/6 2/7/2
vt 0.316300 0.995700
f 5/5/5 2/7/2 1/8/1
vt 0.700800 0.932300
vt 0.586900 0.933600
vt 0.586700 0.910300
f 7/9/7 8/10/8 6/11/6
vt 0.683700 0.909100
f 7/9/7 6/11/6 5/12/5
vt 0.700800 0.995700
vt 0.586900 0.995700
vt 0.586900 0.004300
f 4/13/4 3/14/3 8/15/8
vt 0.700800 0.004300
f 4/13/4 8/15/8 7/16/7
vt 0.316300 0.800300
f 9/17/9 1/1/1 4/4/4
vt 0.299200 0.776800
f 9/17/9 4/4/4 10/18/10
vt 0.800300 0.004300
vt 0.909100 0.004300
vt 0.909100 0.995700
f 11/19/11 5/20/5 1/21/1
vt 0.800300 0.995700
f 11/19/11 1/21/1 9/22/9
vt 0.700800 0.776800
f 12/23/12 7/9/7 5/12/5
vt 0.683700 0.800300
f 12/23/12 5/12/5 11/24/11
vt 0.223200 0.995700
vt 0.067700 0.995700
vt 0.067700 0.004300
f 10/25/10 4/26/4 7/27/7
vt 0.223200 0.004300
f 10/25/10 7/27/7 12/28/12
vt 0.443900 0.801500
f 13/29/13 9/17/9 10/18/10
vt 0.444100 0.778100
f 13/29/13 10/18/10 14/30/14
vt 0.556100 0.004300
vt 0.683700 0.004300
vt 0.683700 0.995700
f 15/31/15 11/32/11 9/33/9
vt 0.556100 0.995700
f 15/31/15 9/33/9 13/34/13
vt 0.555900 0.778100
f 16/35/16 12/23/12 11/24/11
vt 0.556100 0.801500
f 16/35/16 11/24/11 15/36/15
vt 0.444100 0.995700
vt 0.299200 0.995700
vt 0.299200 0.004300
f 14/37/14 10/38/10 12/39/12
vt 0.444100 0.004300
f 14/37/14 12/39/12 16/40/16
vt 0.910300 0.004300
vt 0.933600 0.004300
vt 0.933600 0.995700
f 6/41/6 8/42/8 3/43/3
vt 0.910300 0.995700
f 6/41/6 3/43/3 2/44/2
vt 0.801500 0.004300
vt 0.801500 0.995700
vt 0.778100 0.995700
f 15/45/15 13/46/13 14/47/14
vt 0.778100 0.004300
f 16/48/16 15/45/15 14/47/14
# 28 faces, 48 coords texture

# End of File
