####
#
# OBJ File Generated by Meshlab
#
####
# Object maze13_2.obj
#
# Vertices: 8
# Faces: 10
#
####
mtllib ./maze13_2.obj.mtl

g maze52

vn 0.000000 0.832261 0.554384
v -35.604801 13.462200 -20.575001
vn 0.577350 0.577350 0.577350
v -24.570400 13.462200 -20.575001
vn 0.577350 0.577350 -0.577350
v -24.570400 13.462200 -24.817699
vn 0.000000 0.446329 -0.894869
v -39.863998 13.462200 -24.817699
vn 0.000000 -0.832261 0.554384
v -35.604801 0.270900 -20.575001
vn 0.577350 -0.577350 0.577350
v -24.570400 0.270900 -20.575001
vn 0.000000 -0.446329 -0.894869
v -39.863998 0.270900 -24.817699
vn 0.577350 -0.577350 -0.577350
v -24.570400 0.270900 -24.817699
# 8 vertices, 0 vertices normals


usemtl material_0
vt 0.318200 0.651100
vt 0.362800 0.651100
vt 0.362800 0.674400
f 1/1/1 2/2/2 3/3/3
vt 0.301000 0.674400
f 1/1/1 3/3/3 4/4/4
vt 0.318200 0.004300
vt 0.362800 0.004300
vt 0.362800 0.995700
f 5/5/5 6/6/6 2/7/2
vt 0.318200 0.995700
f 5/5/5 2/7/2 1/8/1
vt 0.699000 0.674400
vt 0.637200 0.674400
vt 0.637200 0.651100
f 7/9/7 8/10/8 6/11/6
vt 0.681800 0.651100
f 7/9/7 6/11/6 5/12/5
vt 0.699000 0.995700
vt 0.637200 0.995700
vt 0.637200 0.004300
f 4/13/4 3/14/3 8/15/8
vt 0.699000 0.004300
f 4/13/4 8/15/8 7/16/7
vt 0.651100 0.004300
vt 0.674400 0.004300
vt 0.674400 0.995700
f 6/17/6 8/18/8 3/19/3
vt 0.651100 0.995700
f 6/17/6 3/19/3 2/20/2
# 10 faces, 20 coords texture

# End of File
