####
#
# OBJ File Generated by Meshlab
#
####
# Object maze13_3.obj
#
# Vertices: 8
# Faces: 10
#
####
mtllib ./maze13_3.obj.mtl

g maze53

vn 0.000000 2.354246 -1.570796
v -35.390400 13.462200 34.535702
vn 0.000000 0.787346 1.570796
v -39.616501 13.462200 38.778301
vn 0.000000 -2.354246 -1.570796
v -35.390400 0.270900 34.535702
vn 0.000000 -0.787346 1.570796
v -39.616501 0.270900 38.778301
vn 1.570796 1.570796 -1.570796
v -28.727501 13.462200 34.535702
vn 1.570796 1.570796 1.570796
v -28.727501 13.462200 38.778301
vn 1.570796 -1.570796 -1.570796
v -28.727501 0.270900 34.535702
vn 1.570796 -1.570796 1.570796
v -28.727501 0.270900 38.778301
# 8 vertices, 0 vertices normals


usemtl material_0
vt 0.346000 0.347900
vt 0.319100 0.347900
vt 0.302000 0.324500
f 5/1/5 1/2/1 2/3/2
vt 0.346000 0.324500
f 5/1/5 2/3/2 6/4/6
vt 0.654000 0.004300
vt 0.680900 0.004300
vt 0.680900 0.995700
f 7/5/7 3/6/3 1/7/1
vt 0.654000 0.995700
f 7/5/7 1/7/1 5/8/5
vt 0.654000 0.324500
vt 0.698000 0.324500
vt 0.680900 0.347900
f 8/9/8 4/10/4 3/11/3
vt 0.654000 0.347900
f 8/9/8 3/11/3 7/12/7
vt 0.346000 0.995700
vt 0.302000 0.995700
vt 0.302000 0.004300
f 6/13/6 2/14/2 4/15/4
vt 0.346000 0.004300
f 6/13/6 4/15/4 8/16/8
vt 0.347900 0.004300
vt 0.347900 0.995700
vt 0.324500 0.995700
f 7/17/7 5/18/5 6/19/6
vt 0.324500 0.004300
f 8/20/8 7/17/7 6/19/6
# 10 faces, 20 coords texture

# End of File
