####
#
# OBJ File Generated by Meshlab
#
####
# Object maze6.obj
#
# Vertices: 8
# Faces: 12
#
####
mtllib ./maze6.obj.mtl

vn 1.570796 1.570795 1.570796
v -84.229103 13.462200 73.608498
vn 1.570796 1.570796 -1.570796
v -84.229103 13.462200 -12.996600
vn -1.570796 1.570795 -1.570796
v -88.471703 13.462200 -12.996600
vn -1.570796 1.570796 1.570796
v -88.471703 13.462200 73.608498
vn 1.570796 -1.570796 1.570796
v -84.229103 0.270900 73.608498
vn 1.570796 -1.570795 -1.570796
v -84.229103 0.270900 -12.996600
vn -1.570796 -1.570795 1.570796
v -88.471703 0.270900 73.608498
vn -1.570796 -1.570796 -1.570796
v -88.471703 0.270900 -12.996600
# 8 vertices, 0 vertices normals


usemtl material_0
vt 0.121700 0.132900
vt 0.121700 0.609400
vt 0.104600 0.609400
f 1/1/1 2/2/2 3/3/3
vt 0.104600 0.132900
f 1/1/1 3/3/3 4/4/4
vt 0.132900 0.004300
vt 0.609400 0.004300
vt 0.609400 0.995700
f 5/5/5 6/6/6 2/7/2
vt 0.132900 0.995700
f 5/5/5 2/7/2 1/8/1
vt 0.895400 0.132900
vt 0.895400 0.609400
vt 0.878300 0.609400
f 7/9/7 8/10/8 6/11/6
vt 0.878300 0.132900
f 7/9/7 6/11/6 5/12/5
vt 0.867100 0.995700
vt 0.390600 0.995700
vt 0.390600 0.004300
f 4/13/4 3/14/3 8/15/8
vt 0.867100 0.004300
f 4/13/4 8/15/8 7/16/7
vt 0.878300 0.004300
vt 0.895400 0.004300
vt 0.895400 0.995700
f 6/17/6 8/18/8 3/19/3
vt 0.878300 0.995700
f 6/17/6 3/19/3 2/20/2
vt 0.121700 0.004300
vt 0.121700 0.995700
vt 0.104600 0.995700
f 5/21/5 1/22/1 4/23/4
vt 0.104600 0.004300
f 7/24/7 5/21/5 4/23/4
# 12 faces, 24 coords texture

# End of File
