####
#
# OBJ File Generated by Meshlab
#
####
# Object maze4_3.obj
#
# Vertices: 8
# Faces: 8
#
####
mtllib ./maze4_3.obj.mtl

vn 0.554663 0.832075 0.000039
v -72.795502 13.462200 -66.533501
vn -0.894427 0.447215 0.000018
v -77.038101 13.462200 -70.776100
vn 0.554663 -0.832075 0.000035
v -72.795502 0.270900 -66.533501
vn -0.894427 -0.447215 0.000021
v -77.038101 0.270900 -70.776100
vn 0.894487 0.447093 -0.000020
v -72.795303 13.460600 -31.890499
vn -0.554189 0.832391 -0.000041
v -77.038002 13.463800 -36.133202
vn 0.894367 -0.447333 -0.000024
v -72.795601 0.269300 -31.892300
vn -0.555137 -0.831759 -0.000037
v -77.038300 0.272500 -36.134998
# 8 vertices, 0 vertices normals


usemtl material_0
vt 0.167900 0.713300
vt 0.167900 0.903900
vt 0.150800 0.927300
f 5/1/5 1/2/1 2/3/2
vt 0.150800 0.736700
f 5/1/5 2/3/2 6/4/6
vt 0.713300 0.004200
vt 0.903900 0.004300
vt 0.903900 0.995700
f 7/5/7 3/6/3 1/7/1
vt 0.713300 0.995600
f 7/5/7 1/7/1 5/8/5
vt 0.849200 0.736700
vt 0.849200 0.927300
vt 0.832100 0.903900
f 8/9/8 4/10/4 3/11/3
vt 0.832100 0.713300
f 8/9/8 3/11/3 7/12/7
vt 0.263300 0.995800
vt 0.072700 0.995700
vt 0.072700 0.004300
f 6/13/6 2/14/2 4/15/4
vt 0.263300 0.004400
f 6/13/6 4/15/4 8/16/8
# 8 faces, 16 coords texture

# End of File
