####
#
# OBJ File Generated by Meshlab
#
####
# Object maze11_4.obj
#
# Vertices: 8
# Faces: 8
#
####
mtllib ./maze11_4.obj.mtl

g maze48

vn 0.000007 0.446327 0.894870
v -12.510100 13.462200 27.000000
vn 0.000004 0.832263 -0.554381
v -16.769300 13.462200 22.757401
vn 0.000007 -0.446327 0.894870
v -12.510100 0.270900 27.000000
vn 0.000004 -0.832263 -0.554381
v -16.769300 0.270900 22.757401
vn 0.000004 0.832418 0.554149
v -24.975000 13.462200 27.000099
vn 0.000007 0.445662 -0.895201
v -29.246700 13.462200 22.757299
vn 0.000004 -0.832418 0.554149
v -24.975000 0.270900 27.000099
vn 0.000007 -0.445662 -0.895201
v -29.246700 0.270900 22.757299
# 8 vertices, 0 vertices normals


usemtl material_0
vt 0.361200 0.389300
vt 0.411500 0.389300
vt 0.394300 0.412700
f 5/1/5 1/2/1 2/3/2
vt 0.343900 0.412700
f 5/1/5 2/3/2 6/4/6
vt 0.361200 0.004300
vt 0.411500 0.004300
vt 0.411500 0.995700
f 7/5/7 3/6/3 1/7/1
vt 0.361200 0.995700
f 7/5/7 1/7/1 5/8/5
vt 0.656100 0.412700
vt 0.605700 0.412700
vt 0.588500 0.389300
f 8/9/8 4/10/4 3/11/3
vt 0.638800 0.389300
f 8/9/8 3/11/3 7/12/7
vt 0.656100 0.995700
vt 0.605700 0.995700
vt 0.605700 0.004300
f 6/13/6 2/14/2 4/15/4
vt 0.656100 0.004300
f 6/13/6 4/15/4 8/16/8
# 8 faces, 16 coords texture

# End of File
