####
#
# OBJ File Generated by Meshlab
#
####
# Object maze30_1.obj
#
# Vertices: 8
# Faces: 10
#
####
mtllib ./maze30_1.obj.mtl

vn 0.000000 0.785398 -1.570796
v 79.774803 13.462200 -24.586700
vn 0.000000 2.356195 1.570796
v 84.017403 13.462200 -20.344101
vn 0.000000 -0.785398 -1.570796
v 79.774803 0.270900 -24.586700
vn 0.000000 -2.356194 1.570796
v 84.017403 0.270900 -20.344101
vn 1.570796 1.570796 -1.570796
v 116.076202 13.462200 -24.586700
vn 1.570796 1.570796 1.570796
v 116.076202 13.462200 -20.344101
vn 1.570796 -1.570796 -1.570796
v 116.076202 0.270900 -24.586700
vn 1.570796 -1.570796 1.570796
v 116.076202 0.270900 -20.344101
# 8 vertices, 0 vertices normals


usemtl material_0
vt 0.931200 0.673100
vt 0.784500 0.673100
vt 0.801600 0.649800
f 5/1/5 1/2/1 2/3/2
vt 0.931200 0.649800
f 5/1/5 2/3/2 6/4/6
vt 0.068800 0.004300
vt 0.215500 0.004300
vt 0.215500 0.995700
f 7/5/7 3/6/3 1/7/1
vt 0.068800 0.995700
f 7/5/7 1/7/1 5/8/5
vt 0.068800 0.649800
vt 0.198400 0.649800
vt 0.215500 0.673100
f 8/9/8 4/10/4 3/11/3
vt 0.068800 0.673100
f 8/9/8 3/11/3 7/12/7
vt 0.931200 0.995700
vt 0.801600 0.995700
vt 0.801600 0.004300
f 6/13/6 2/14/2 4/15/4
vt 0.931200 0.004300
f 6/13/6 4/15/4 8/16/8
vt 0.673100 0.004300
vt 0.673100 0.995700
vt 0.649800 0.995700
f 7/17/7 5/18/5 6/19/6
vt 0.649800 0.004300
f 8/20/8 7/17/7 6/19/6
# 10 faces, 20 coords texture

# End of File
