####
#
# OBJ File Generated by Meshlab
#
####
# Object maze28.obj
#
# Vertices: 8
# Faces: 10
#
####
mtllib ./maze28.obj.mtl

g maze80

vn 0.577350 0.577350 0.577350
v 120.507004 13.462200 -42.976898
vn -0.301511 0.904534 -0.301511
v 116.264397 13.462200 -47.219501
vn 0.577350 -0.577350 0.577350
v 120.507004 0.270900 -42.976898
vn -0.301511 -0.904534 -0.301511
v 116.264397 0.270900 -47.219501
vn -0.577350 0.577350 0.577350
v 107.993103 13.462200 -42.976898
vn -0.577350 0.577350 -0.577350
v 107.993103 13.462200 -47.219501
vn -0.577350 -0.577350 0.577350
v 107.993103 0.270900 -42.976898
vn -0.577350 -0.577350 -0.577350
v 107.993103 0.270900 -47.219501
# 8 vertices, 0 vertices normals


usemtl material_0
vt 0.898500 0.774300
vt 0.949100 0.774300
vt 0.931900 0.797700
f 5/1/5 1/2/1 2/3/2
vt 0.898500 0.797700
f 5/1/5 2/3/2 6/4/6
vt 0.898500 0.004300
vt 0.949100 0.004300
vt 0.949100 0.995700
f 7/5/7 3/6/3 1/7/1
vt 0.898500 0.995700
f 7/5/7 1/7/1 5/8/5
vt 0.101500 0.797700
vt 0.068100 0.797700
vt 0.050900 0.774300
f 8/9/8 4/10/4 3/11/3
vt 0.101500 0.774300
f 8/9/8 3/11/3 7/12/7
vt 0.101500 0.995700
vt 0.068100 0.995700
vt 0.068100 0.004300
f 6/13/6 2/14/2 4/15/4
vt 0.101500 0.004300
f 6/13/6 4/15/4 8/16/8
vt 0.225700 0.004300
vt 0.225700 0.995700
vt 0.202300 0.995700
f 7/17/7 5/18/5 6/19/6
vt 0.202300 0.004300
f 8/20/8 7/17/7 6/19/6
# 10 faces, 20 coords texture

# End of File
