####
#
# OBJ File Generated by Meshlab
#
####
# Object maze18_2.obj
#
# Vertices: 8
# Faces: 8
#
####
mtllib ./maze18_2.obj.mtl

g maze66

vn 0.000010 0.831496 0.555530
v -5.192100 13.462200 61.641998
vn 0.000008 0.449538 -0.893261
v -0.992600 13.462200 57.399399
vn 0.000010 -0.831496 0.555530
v -5.192100 0.270900 61.641998
vn 0.000008 -0.449538 -0.893261
v -0.992600 0.270900 57.399399
vn 0.000015 0.449532 0.893264
v -16.970501 13.462200 61.642200
vn 0.000005 0.831492 -0.555537
v -12.770800 13.462200 57.399300
vn 0.000015 -0.449532 0.893264
v -16.970501 0.270900 61.642200
vn 0.000005 -0.831492 -0.555537
v -12.770800 0.270900 57.399300
# 8 vertices, 0 vertices normals


usemtl material_0
vt 0.393500 0.198700
vt 0.441100 0.198700
vt 0.458100 0.222100
f 5/1/5 1/2/1 2/3/2
vt 0.410500 0.222100
f 5/1/5 2/3/2 6/4/6
vt 0.393500 0.004300
vt 0.441100 0.004300
vt 0.441100 0.995700
f 7/5/7 3/6/3 1/7/1
vt 0.393500 0.995700
f 7/5/7 1/7/1 5/8/5
vt 0.589500 0.222100
vt 0.541900 0.222100
vt 0.558900 0.198700
f 8/9/8 4/10/4 3/11/3
vt 0.606500 0.198700
f 8/9/8 3/11/3 7/12/7
vt 0.589500 0.995700
vt 0.541900 0.995700
vt 0.541900 0.004300
f 6/13/6 2/14/2 4/15/4
vt 0.589500 0.004300
f 6/13/6 4/15/4 8/16/8
# 8 faces, 16 coords texture

# End of File
