####
#
# OBJ File Generated by Meshlab
#
####
# Object maze4_14.obj
#
# Vertices: 8
# Faces: 10
#
####
mtllib ./maze4_14.obj.mtl

vn -1.572505 0.784835 0.000020
v 19.494900 13.457400 39.240601
vn 1.565396 2.356833 0.000078
v 23.737700 13.467000 34.998100
vn -1.569087 -0.786105 0.000065
v 19.500200 0.266100 39.239700
vn 1.576195 -2.355558 0.000014
v 23.743000 0.275700 34.997200
vn -1.574078 1.570079 -1.572901
v 19.496099 13.457400 14.946400
vn 1.567045 1.570863 -1.568799
v 23.738701 13.467000 14.946500
vn -1.567439 -1.571548 -1.568801
v 19.499201 0.266100 14.949500
vn 1.574624 -1.570877 -1.572918
v 23.741800 0.275700 14.949600
# 8 vertices, 0 vertices normals


usemtl material_0
vt 0.540900 0.455600
vt 0.540900 0.322000
vt 0.558000 0.345300
f 5/1/5 1/2/1 2/3/2
vt 0.558000 0.455600
f 5/1/5 2/3/2 6/4/6
vt 0.544400 0.004000
vt 0.678000 0.004000
vt 0.678000 0.995300
f 7/5/7 3/6/3 1/7/1
vt 0.544400 0.995300
f 7/5/7 1/7/1 5/8/5
vt 0.442000 0.455600
vt 0.442000 0.345300
vt 0.459100 0.322000
f 8/9/8 4/10/4 3/11/3
vt 0.459100 0.455600
f 8/9/8 3/11/3 7/12/7
vt 0.455600 0.996000
vt 0.345300 0.996000
vt 0.345300 0.004700
f 6/13/6 2/14/2 4/15/4
vt 0.455600 0.004700
f 6/13/6 4/15/4 8/16/8
vt 0.459100 0.004000
vt 0.459100 0.995300
vt 0.442000 0.996000
f 7/17/7 5/18/5 6/19/6
vt 0.442000 0.004700
f 8/20/8 7/17/7 6/19/6
# 10 faces, 20 coords texture

# End of File
