####
#
# OBJ File Generated by Meshlab
#
####
# Object maze29.obj
#
# Vertices: 12
# Faces: 20
#
####
mtllib ./maze29.obj.mtl

vn 1.570796 1.570797 1.570796
v 120.045097 13.462200 38.547401
vn 1.570796 1.570796 -1.570796
v 120.045097 13.462200 -37.015099
vn -1.570796 1.570797 -1.570796
v 115.802498 13.462200 -37.015099
vn -1.570796 4.712389 -1.570796
v 115.802498 13.462200 34.304699
vn 1.570796 -1.570795 1.570796
v 120.045097 0.270900 38.547401
vn 1.570796 -1.570796 -1.570796
v 120.045097 0.270900 -37.015099
vn -1.570796 -4.712389 -1.570796
v 115.802498 0.270900 34.304699
vn -1.570796 -1.570796 -1.570796
v 115.802498 0.270900 -37.015099
vn -1.570796 1.570796 1.570796
v 55.337200 13.462200 38.547401
vn -1.570796 1.570796 -1.570796
v 55.337200 13.462200 34.304699
vn -1.570796 -1.570796 1.570796
v 55.337200 0.270900 38.547401
vn -1.570796 -1.570795 -1.570796
v 55.337200 0.270900 34.304699
# 12 vertices, 0 vertices normals


usemtl material_0
vt 0.947200 0.325800
vt 0.947200 0.741500
vt 0.930100 0.741500
f 1/1/1 2/2/2 3/3/3
vt 0.930100 0.349100
f 1/1/1 3/3/3 4/4/4
vt 0.325800 0.004300
vt 0.741500 0.004300
vt 0.741500 0.995700
f 5/5/5 6/6/6 2/7/2
vt 0.325800 0.995700
f 5/5/5 2/7/2 1/8/1
vt 0.069900 0.349100
vt 0.069900 0.741500
vt 0.052800 0.741500
f 7/9/7 8/10/8 6/11/6
vt 0.052800 0.325800
f 7/9/7 6/11/6 5/12/5
vt 0.650900 0.995700
vt 0.258500 0.995700
vt 0.258500 0.004300
f 4/13/4 3/14/3 8/15/8
vt 0.650900 0.004300
f 4/13/4 8/15/8 7/16/7
vt 0.685700 0.325800
f 9/17/9 1/1/1 4/4/4
vt 0.685700 0.349100
f 9/17/9 4/4/4 10/18/10
vt 0.685700 0.004300
vt 0.947200 0.004300
vt 0.947200 0.995700
f 11/19/11 5/20/5 1/21/1
vt 0.685700 0.995700
f 11/19/11 1/21/1 9/22/9
vt 0.314300 0.349100
f 12/23/12 7/9/7 5/12/5
vt 0.314300 0.325800
f 12/23/12 5/12/5 11/24/11
vt 0.314300 0.995700
vt 0.069900 0.995700
vt 0.069900 0.004300
f 10/25/10 4/26/4 7/27/7
vt 0.314300 0.004300
f 10/25/10 7/27/7 12/28/12
vt 0.052800 0.004300
f 6/29/6 8/27/8 3/26/3
vt 0.052800 0.995700
f 6/29/6 3/26/3 2/30/2
vt 0.674200 0.004300
vt 0.674200 0.995700
f 11/31/11 9/32/9 10/13/10
f 12/16/12 11/31/11 10/13/10
# 20 faces, 32 coords texture

# End of File
