####
#
# OBJ File Generated by Meshlab
#
####
# Object mesh5_2.obj
#
# Vertices: 8
# Faces: 10
#
####
mtllib ./mesh5_2.obj.mtl

vn -0.040259 0.772586 1.570280
v -73.026497 13.462200 14.814900
vn 0.040273 2.369016 -1.570280
v -77.269096 13.462200 10.462100
vn -0.040259 -0.772586 1.570280
v -73.026497 0.270900 14.814900
vn 0.040273 -2.369016 -1.570280
v -77.269096 0.270900 10.462100
vn -1.610539 1.570783 1.530000
v -84.209099 13.462200 14.528200
vn -1.530007 1.570801 -1.610560
v -84.100304 13.462200 10.286900
vn -1.610539 -1.570783 1.530000
v -84.209099 0.270900 14.528200
vn -1.530007 -1.570801 -1.610560
v -84.100304 0.270900 10.286900
# 8 vertices, 0 vertices normals


usemtl material_0
vt 0.121800 0.457900
vt 0.167000 0.456400
vt 0.149800 0.480300
f 5/1/5 1/2/1 2/3/2
vt 0.122200 0.481300
f 5/1/5 2/3/2 6/4/6
vt 0.121800 0.004300
vt 0.167000 0.004300
vt 0.167000 0.995700
f 7/5/7 3/6/3 1/7/1
vt 0.121800 0.995700
f 7/5/7 1/7/1 5/8/5
vt 0.877800 0.481300
vt 0.850200 0.480300
vt 0.833000 0.456400
f 8/9/8 4/10/4 3/11/3
vt 0.878200 0.457900
f 8/9/8 3/11/3 7/12/7
vt 0.877800 0.995700
vt 0.850200 0.995700
vt 0.850200 0.004300
f 6/13/6 2/14/2 4/15/4
vt 0.877800 0.004300
f 6/13/6 4/15/4 8/16/8
vt 0.542100 0.004300
vt 0.542100 0.995700
vt 0.518700 0.995700
f 7/17/7 5/18/5 6/19/6
vt 0.518700 0.004300
f 8/20/8 7/17/7 6/19/6
# 10 faces, 20 coords texture

# End of File
