####
#
# OBJ File Generated by Meshlab
#
####
# Object mesh10_2.obj
#
# Vertices: 8
# Faces: 10
#
####
mtllib ./mesh10_2.obj.mtl

g maze115

vn 1.570796 2.356195 0.000000
v -60.324402 13.462200 73.420303
vn -1.570796 0.785397 0.000000
v -64.567001 13.462200 69.177696
vn 1.570796 -2.356195 0.000000
v -60.324402 0.270900 73.420303
vn -1.570796 -0.785397 0.000000
v -64.567001 0.270900 69.177696
vn 1.570796 1.570796 1.570796
v -60.324402 13.462200 82.153503
vn -1.570796 1.570796 1.570796
v -64.567001 13.462200 82.153503
vn 1.570796 -1.570796 1.570796
v -60.324402 0.270900 82.153503
vn -1.570796 -1.570796 1.570796
v -64.567001 0.270900 82.153503
# 8 vertices, 0 vertices normals


usemtl material_0
vt 0.218300 0.085900
vt 0.218300 0.133900
vt 0.201200 0.157300
f 5/1/5 1/2/1 2/3/2
vt 0.201200 0.085900
f 5/1/5 2/3/2 6/4/6
vt 0.085900 0.004300
vt 0.133900 0.004300
vt 0.133900 0.995700
f 7/5/7 3/6/3 1/7/1
vt 0.085900 0.995700
f 7/5/7 1/7/1 5/8/5
vt 0.798800 0.085900
vt 0.798800 0.157300
vt 0.781700 0.133900
f 8/9/8 4/10/4 3/11/3
vt 0.781700 0.085900
f 8/9/8 3/11/3 7/12/7
vt 0.914100 0.995700
vt 0.842700 0.995700
vt 0.842700 0.004300
f 6/13/6 2/14/2 4/15/4
vt 0.914100 0.004300
f 6/13/6 4/15/4 8/16/8
vt 0.218300 0.004300
vt 0.218300 0.995700
vt 0.201200 0.995700
f 7/17/7 5/18/5 6/19/6
vt 0.201200 0.004300
f 8/20/8 7/17/7 6/19/6
# 10 faces, 20 coords texture

# End of File
