####
#
# OBJ File Generated by Meshlab
#
####
# Object mesh5_1.obj
#
# Vertices: 8
# Faces: 10
#
####
mtllib ./mesh5_1.obj.mtl

g maze109

vn 1.570796 0.772580 0.000003
v -73.026497 13.462200 14.814900
vn 1.570796 1.570794 -1.570793
v -73.026398 13.462200 -31.934200
vn -1.570796 1.570796 -1.570796
v -77.269096 13.462200 -31.934200
vn -1.570796 2.369015 0.000000
v -77.269096 13.462200 10.462100
vn 1.570796 -0.772580 0.000003
v -73.026497 0.270900 14.814900
vn 1.570796 -1.570795 -1.570793
v -73.026398 0.270900 -31.934200
vn -1.570796 -2.369015 0.000000
v -77.269096 0.270900 10.462100
vn -1.570796 -1.570796 -1.570796
v -77.269096 0.270900 -31.934200
# 8 vertices, 0 vertices normals


usemtl material_0
vt 0.167000 0.456400
vt 0.167000 0.713600
vt 0.149800 0.713600
f 1/1/1 2/2/2 3/3/3
vt 0.149800 0.480300
f 1/1/1 3/3/3 4/4/4
vt 0.456400 0.004300
vt 0.713600 0.004300
vt 0.713600 0.995700
f 5/5/5 6/6/6 2/7/2
vt 0.456400 0.995700
f 5/5/5 2/7/2 1/8/1
vt 0.850200 0.480300
vt 0.850200 0.713600
vt 0.833000 0.713600
f 7/9/7 8/10/8 6/11/6
vt 0.833000 0.456400
f 7/9/7 6/11/6 5/12/5
vt 0.519700 0.995700
vt 0.286400 0.995700
vt 0.286400 0.004300
f 4/13/4 3/14/3 8/15/8
vt 0.519700 0.004300
f 4/13/4 8/15/8 7/16/7
vt 0.833000 0.004300
vt 0.850200 0.004300
vt 0.850200 0.995700
f 6/17/6 8/18/8 3/19/3
vt 0.833000 0.995700
f 6/17/6 3/19/3 2/20/2
# 10 faces, 20 coords texture

# End of File
