####
#
# OBJ File Generated by Meshlab
#
####
# Object mesh10_1.obj
#
# Vertices: 8
# Faces: 10
#
####
mtllib ./mesh10_1.obj.mtl

g maze114

vn 0.000000 0.832050 0.554700
v -60.324402 13.462200 73.420303
vn 0.577350 0.577350 0.577350
v -35.424900 13.462200 73.420303
vn 0.577350 0.577350 -0.577350
v -35.424900 13.462200 69.177696
vn 0.000000 0.447214 -0.894427
v -64.567001 13.462200 69.177696
vn 0.000000 -0.832050 0.554700
v -60.324402 0.270900 73.420303
vn 0.577350 -0.577350 0.577350
v -35.424900 0.270900 73.420303
vn 0.000000 -0.447214 -0.894427
v -64.567001 0.270900 69.177696
vn 0.577350 -0.577350 -0.577350
v -35.424900 0.270900 69.177696
# 8 vertices, 0 vertices normals


usemtl material_0
vt 0.218300 0.133900
vt 0.318900 0.133900
vt 0.318900 0.157300
f 1/1/1 2/2/2 3/3/3
vt 0.201200 0.157300
f 1/1/1 3/3/3 4/4/4
vt 0.218300 0.004300
vt 0.318900 0.004300
vt 0.318900 0.995700
f 5/5/5 6/6/6 2/7/2
vt 0.218300 0.995700
f 5/5/5 2/7/2 1/8/1
vt 0.798800 0.157300
vt 0.681100 0.157300
vt 0.681100 0.133900
f 7/9/7 8/10/8 6/11/6
vt 0.781700 0.133900
f 7/9/7 6/11/6 5/12/5
vt 0.798800 0.995700
vt 0.681100 0.995700
vt 0.681100 0.004300
f 4/13/4 3/14/3 8/15/8
vt 0.798800 0.004300
f 4/13/4 8/15/8 7/16/7
vt 0.133900 0.004300
vt 0.157300 0.004300
vt 0.157300 0.995700
f 6/17/6 8/18/8 3/19/3
vt 0.133900 0.995700
f 6/17/6 3/19/3 2/20/2
# 10 faces, 20 coords texture

# End of File
