####
#
# OBJ File Generated by Meshlab
#
####
# Object mesh7_3.obj
#
# Vertices: 8
# Faces: 10
#
####
mtllib ./mesh7_3.obj.mtl

vn 1.570760 0.788818 0.010760
v -48.560600 13.462200 -43.438801
vn 1.581533 1.570805 -1.560000
v -48.315201 13.462200 -79.263802
vn -1.559986 1.570786 -1.581517
v -52.557701 13.462200 -79.292900
vn -1.570760 2.352775 -0.010758
v -52.774200 13.462200 -47.681400
vn 1.570759 -0.788819 0.010760
v -48.560600 0.270900 -43.438801
vn 1.581533 -1.570804 -1.560000
v -48.315201 0.270900 -79.263802
vn -1.570760 -2.352775 -0.010758
v -52.774200 0.270900 -47.681400
vn -1.559986 -1.570786 -1.581517
v -52.557701 0.270900 -79.292900
# 8 vertices, 0 vertices normals


usemtl material_0
vt 0.265800 0.776900
vt 0.266800 0.974000
vt 0.249700 0.974100
f 1/1/1 2/2/2 3/3/3
vt 0.248800 0.800200
f 1/1/1 3/3/3 4/4/4
vt 0.776900 0.004300
vt 0.974000 0.004300
vt 0.974000 0.995700
f 5/5/5 6/6/6 2/7/2
vt 0.776900 0.995700
f 5/5/5 2/7/2 1/8/1
vt 0.751200 0.800200
vt 0.750300 0.974100
vt 0.733200 0.974000
f 7/9/7 8/10/8 6/11/6
vt 0.734200 0.776900
f 7/9/7 6/11/6 5/12/5
vt 0.199800 0.995700
vt 0.025900 0.995700
vt 0.025900 0.004300
f 4/13/4 3/14/3 8/15/8
vt 0.199800 0.004300
f 4/13/4 8/15/8 7/16/7
vt 0.733200 0.004300
vt 0.750300 0.004300
vt 0.750300 0.995700
f 6/17/6 8/18/8 3/19/3
vt 0.733200 0.995700
f 6/17/6 3/19/3 2/20/2
# 10 faces, 20 coords texture

# End of File
